<svg version="1.1" xmlns="http://www.w3.org/2000/svg" style="display: block;" viewBox="0 0 2172 724" width="2172" height="724" preserveAspectRatio="none">
<path transform="translate(0,0)" fill="rgb(251,251,251)" d="M 1019.26 312.287 C 1037.47 309.259 1063.91 313.94 1079.78 323.029 C 1085.65 326.392 1089.05 330.208 1095.64 332.654 C 1096.89 329.73 1099.95 321.963 1101.95 319.873 C 1105.74 315.867 1110.99 313.57 1116.51 313.505 C 1125.77 313.396 1136.17 320.693 1136.61 330.168 C 1137.4 347.147 1136.96 364.717 1136.94 381.717 L 1137.12 496.049 L 1131.27 505.929 C 1115.99 514.517 1100.22 511.822 1096.84 492.581 C 1092.17 491.822 1085.86 498.587 1079.68 501.888 C 1068.63 506.533 1060.96 509.72 1048.83 511.688 C 1021.74 516.033 994.035 509.575 971.661 493.704 C 949.943 478.023 935.358 454.343 931.127 427.892 C 921.872 369.406 961.964 321.115 1019.26 312.287 z M 1040.64 473.067 C 1074.3 469.187 1098.51 438.851 1094.83 405.167 C 1091.14 371.483 1060.95 347.095 1027.24 350.58 C 993.259 354.095 968.624 384.594 972.337 418.559 C 976.05 452.523 1006.69 476.979 1040.64 473.067 z"/>
<path transform="translate(0,0)" fill="rgb(251,251,251)" d="M 1572.54 312.256 C 1589.55 310.491 1611.56 312.528 1626.98 320.714 C 1633.45 324.149 1640.61 329.007 1647.13 331.721 C 1652.26 318.893 1655.63 316.256 1668.9 312.751 C 1669.91 313.022 1670.93 313.301 1671.94 313.588 C 1682.41 316.566 1683.66 318.944 1688.83 328.222 C 1687.73 383.261 1692.34 440.133 1688.63 495.332 C 1688.48 497.61 1685.93 502.54 1684.81 504.728 C 1676.21 510.732 1665.32 513.78 1656.09 506.571 C 1652.31 503.62 1648.4 497.881 1648.07 492.952 C 1642.92 491.304 1638.75 498.885 1631.41 501.787 L 1631.11 501.902 C 1620.02 507.025 1612.47 509.98 1600.13 511.866 C 1573.15 515.935 1545.66 509.123 1523.7 492.928 C 1502.08 477.102 1487.72 453.267 1483.82 426.761 C 1480.02 400.582 1486.86 373.97 1502.82 352.872 C 1520.15 329.736 1544.18 316.351 1572.54 312.256 z M 1593.65 473.133 C 1627.41 469.14 1651.55 438.552 1647.59 404.787 C 1643.63 371.022 1613.07 346.847 1579.3 350.77 C 1545.48 354.699 1521.27 385.317 1525.23 419.131 C 1529.19 452.945 1559.84 477.132 1593.65 473.133 z"/>
<path transform="translate(0,0)" fill="rgb(251,251,251)" d="M 706.607 311.448 C 762.782 303.743 814.472 343.297 821.716 399.534 C 828.961 455.77 788.983 507.134 732.689 513.917 C 677.044 520.622 626.401 481.205 619.241 425.617 C 612.08 370.029 651.079 319.065 706.607 311.448 z M 727.613 472.921 C 760.914 469.097 784.978 439.248 781.649 405.893 C 778.32 372.539 748.832 348.034 715.432 350.867 C 693.38 352.737 674.046 366.342 664.838 386.466 C 655.631 406.591 657.979 430.115 670.982 448.023 C 683.985 465.931 705.626 475.446 727.613 472.921 z"/>
<path transform="translate(0,0)" fill="rgb(251,251,251)" d="M 1352.21 311.418 C 1355.99 311.52 1360.1 311.645 1363.87 312.034 C 1389.13 314.45 1412.38 326.819 1428.5 346.409 C 1441.86 362.903 1452.35 388.088 1450.82 409.977 C 1450.22 418.455 1445.74 423.633 1439.39 428.635 C 1417.74 432.912 1308.72 425.815 1297.35 431.348 C 1297.61 433.938 1298.66 436.295 1299.66 438.624 C 1316.75 478.568 1371.59 483.257 1402.33 456.358 C 1406.83 452.419 1411.15 449.788 1416.98 449.952 L 1417.3 449.963 C 1434.13 453.361 1443.63 468.558 1429.92 482.663 C 1411.61 501.486 1386.36 511.501 1360.28 512.859 C 1332.41 514.296 1305.1 504.628 1284.34 485.97 C 1264.65 468.102 1252.98 443.061 1251.96 416.492 C 1250.62 389.63 1260.21 363.367 1278.54 343.687 C 1298.59 321.83 1323.07 312.606 1352.21 311.418 z M 1297.09 390.13 L 1359.5 390.074 C 1375.62 390.146 1391.73 390.078 1407.85 389.871 C 1397 362.926 1377.65 348.31 1347.49 351.312 C 1321 355.068 1307.85 366.205 1297.09 390.13 z"/>
<path transform="translate(0,0)" fill="rgb(251,251,251)" d="M 359.832 232.203 C 379.175 230.119 395.62 238.111 405.104 255.369 C 405.615 256.299 407.444 259.518 407.574 260.446 C 412.333 294.197 409.217 329.702 409.951 363.819 C 410.751 399.809 410.074 435.83 409.291 471.808 C 408.865 491.615 395.968 505 377.723 510.76 C 364.735 513.107 354.039 511.985 342.409 505.5 C 324.256 495.377 324.195 478.641 323.959 459.972 C 323.821 449.042 323.922 438.122 323.918 427.213 L 323.936 355.675 C 323.958 327.877 323.762 300.07 324.287 272.282 C 324.716 249.556 338.781 237.309 359.832 232.203 z"/>
<path transform="translate(0,0)" fill="rgb(251,251,251)" d="M 1820.27 232.218 C 1828.38 231.261 1838.22 232.015 1846.59 231.603 C 1856.65 231.23 1871.31 231.862 1874.72 243.834 C 1882.24 270.222 1855.4 267.807 1840.16 268.487 C 1811.91 269.747 1801.22 285.862 1801.11 312.445 C 1801.27 312.673 1802.54 314.4 1802.54 314.4 C 1819.68 317.869 1885.75 303.093 1861.55 347.426 C 1842.59 359.241 1810.13 347.934 1801.48 354.885 C 1800.05 361.317 1800.6 385.862 1800.61 394.06 L 1800.67 475.25 C 1800.96 489.571 1802.3 493.089 1794.66 505.346 C 1772.22 518.373 1758.3 505.555 1758.9 481.776 C 1759.1 473.943 1758.98 465.355 1758.98 457.434 L 1759.21 381.706 C 1759.23 377.952 1759.83 358.677 1758.57 355.246 C 1756.21 348.822 1724.28 358.031 1719.19 344.912 C 1713.84 334.465 1717.3 331.083 1720.42 322.94 C 1725.95 308.517 1757.69 320.083 1758.61 311.875 C 1762.68 275.379 1772.46 241.864 1820.27 232.218 z"/>
<path transform="translate(0,0)" fill="rgb(251,251,251)" d="M 441.27 376.087 C 457.957 375.184 496.466 374.382 512.876 378.918 C 515.934 379.764 526.857 385.907 529.576 389.202 C 555.329 420.545 582.428 451.839 606.322 484.524 C 612.988 493.641 606.561 506.135 596.256 510.672 C 575.698 511.062 540.715 512.816 521.323 507.134 C 517.738 506.084 507.842 498.263 504.905 494.645 C 479.34 463.084 452.403 431.361 429.611 397.8 C 423.482 388.775 433.487 379.596 441.27 376.087 z"/>
<path transform="translate(0,0)" fill="rgb(19,163,41)" d="M 574.904 232.346 C 577.335 232.203 579.767 232.077 582.2 231.969 C 607.171 230.875 606.429 236.627 601.431 258.493 C 590.003 308.485 547.129 348.716 495.98 355.192 C 485.071 356.573 475.607 356.81 464.623 356.891 C 454.456 356.689 426.684 362.122 435.286 344.661 C 464.956 284.434 504.943 239.902 574.904 232.346 z"/>
<path transform="translate(0,0)" fill="rgb(251,251,251)" d="M 1186.83 235.185 C 1191.25 234.389 1195.29 234.527 1199.55 235.925 C 1205.09 237.688 1209.66 241.637 1212.21 246.856 C 1213.8 250.154 1214.2 259.853 1214.24 263.937 C 1214.91 337.723 1213.88 411.476 1214.76 485.255 C 1214.92 498.386 1211.86 504.289 1199.66 509.655 C 1189.46 511.862 1181.54 509.62 1175.45 500.428 C 1173.29 497.164 1172.9 494.775 1172.71 490.874 C 1171.68 470.489 1171.93 450.018 1171.92 429.607 L 1171.91 332.522 C 1171.92 307.034 1171.16 275.85 1173.1 250.258 C 1173.59 243.783 1181.53 238.442 1186.83 235.185 z"/>
<path transform="translate(0,0)" fill="rgb(251,251,251)" d="M 876.643 234.075 C 884.609 235.577 887.488 237.373 893.728 242.556 C 894.062 243.263 894.376 243.979 894.67 244.703 C 898.447 254.064 897.109 288.458 897.102 300.894 L 897.091 381.814 L 897.168 453.203 C 897.186 467.775 899.095 490.609 893.678 503.405 C 887.444 508.471 885.173 509.431 877.527 511.133 C 861.292 508.927 855.807 501.231 855.826 485.315 C 855.85 465.26 855.806 445.159 855.796 425.101 L 855.743 312.307 C 855.74 293.465 855.693 274.621 855.786 255.781 C 855.81 250.932 856.82 248.973 859.318 244.877 C 863.395 238.192 869.407 235.778 876.643 234.075 z"/>
</svg>