<svg version="1.1" xmlns="http://www.w3.org/2000/svg" style="display: block;" viewBox="0 0 2048 2048" width="1254" height="1254" preserveAspectRatio="none">
<path transform="translate(0,0)" fill="rgb(1,77,53)" d="M 645.322 354.405 C 646.853 354.221 647.951 354.096 649.496 354.01 C 699.115 350.906 747.952 367.523 785.38 400.246 C 820.343 431.151 845.405 477.999 847.83 524.865 C 848.916 545.848 848.287 570.939 848.212 592.321 L 847.839 706.348 L 847.352 1061.76 L 847.238 1292.91 L 847.25 1362.54 C 847.239 1379.92 847.763 1399.04 845.211 1416.08 C 839.801 1452.66 823.696 1486.83 798.92 1514.28 C 761.837 1555.08 715.994 1573.7 661.75 1576.27 C 615.087 1577.3 569.686 1561.07 534.251 1530.69 C 498.298 1500.27 472.19 1453.19 468.478 1406.03 C 466.776 1384.41 467.412 1358.37 467.425 1336.22 L 467.511 1228.46 L 467.544 892.721 L 467.548 643.94 L 467.594 572.862 C 467.617 554.067 467.093 535.567 469.78 516.921 C 474.951 481.279 490.198 447.856 513.726 420.588 C 547.349 381.236 593.987 358.607 645.322 354.405 z"/>
<path transform="translate(0,0)" fill="rgb(1,77,53)" d="M 957.895 995.271 C 971.147 994.301 989.215 995.24 1002.9 995.627 L 1080.47 997.932 C 1109.22 998.632 1153.23 996.781 1180.01 1000.32 C 1200.78 1002.92 1221.02 1008.74 1239.99 1017.58 C 1297.49 1043.68 1326.05 1086.15 1362.87 1134.02 L 1441.21 1235.66 L 1546.25 1370.98 C 1564.01 1393.83 1581.96 1416.57 1599.44 1439.7 C 1616.58 1462.39 1616.99 1498.72 1605 1523.8 C 1596.72 1541.12 1584.1 1553.17 1565.97 1559.57 C 1552.55 1561.86 1537.67 1561.25 1523.96 1561.23 L 1468.5 1561.12 L 1389.11 1561.04 C 1366.3 1561 1343.74 1561.65 1321.14 1558.04 C 1298.81 1554.41 1277.3 1546.81 1257.64 1535.59 C 1213.18 1510.33 1190.54 1474.38 1161.04 1434.89 L 1085.66 1334.01 L 985.265 1197.81 C 965.623 1171.21 945.582 1144.52 926.366 1117.59 C 922.09 1111.02 917.993 1104.05 915.981 1096.47 C 907.541 1064.66 906.714 1018.18 940.753 1000.75 C 946.4 997.853 951.665 996.69 957.895 995.271 z"/>
<path transform="translate(0,0)" fill="rgb(40,159,42)" d="M 1486.4 367.42 C 1507.93 364.28 1539.09 367.324 1561.08 368.732 C 1586.87 370.385 1592.33 387.74 1591.42 410.87 C 1585.98 549.283 1517.89 688.321 1419.12 784.249 C 1344.88 856.814 1248.46 902.405 1145.26 913.739 C 1106.27 917.907 1062.77 917.061 1023.29 916.472 C 1007.27 915.671 985.547 915.407 969.631 915.944 C 896.651 919.521 913.668 887.554 935.919 840.882 C 1048.72 604.274 1203.54 385.511 1486.4 367.42 z"/>
</svg>