<svg version="1.1" xmlns="http://www.w3.org/2000/svg" style="display: block;" viewBox="0 0 2048 2048" width="1254" height="1254" preserveAspectRatio="none">
<path transform="translate(0,0)" fill="rgb(253,253,252)" d="M 680.932 444.421 C 764.997 434.336 843.912 495.633 858.681 578.251 C 862.814 601.374 861.725 623.256 861.595 646.545 L 861.523 712.865 L 861.204 982.47 L 861.236 1235.42 C 861.21 1273.55 863.4 1314.72 860.292 1352.21 C 858.246 1376.87 844.027 1410.72 829.045 1430.3 C 799.349 1469.11 764.819 1490.08 717.213 1497.75 C 714.84 1498.05 712.463 1498.32 710.082 1498.54 C 665.872 1502.69 623.439 1488.33 589.428 1460.11 C 554.598 1431.15 532.845 1389.43 529.045 1344.29 C 527.411 1326.46 527.925 1305.25 527.929 1287.04 L 527.971 1200.73 L 527.958 922.499 L 527.909 706.254 L 527.88 641.766 C 527.924 587.087 530.28 547.77 567.533 503.706 C 597.442 468.329 634.804 448.636 680.932 444.421 z"/>
<path transform="translate(0,0)" fill="rgb(55,168,47)" d="M 1473.6 444.455 C 1480.72 444.257 1487.85 444.109 1494.97 444.01 C 1511.74 443.864 1527.47 446.617 1526.24 467.118 C 1518.84 590.367 1465.09 718.642 1377.34 805.882 C 1310.95 871.895 1219.98 923.316 1126.3 933.036 C 1080.16 937.823 1027.04 935.887 980.362 935.996 C 961.599 936.003 919.256 942.542 926.741 913.734 C 930.762 898.262 942.217 876.863 949.219 862.038 C 991.518 772.474 1038.82 683.895 1105.42 609.819 C 1177.84 529.265 1273.43 473.386 1380.35 454.122 C 1414.03 447.917 1439.68 446.086 1473.6 444.455 z"/>
<path transform="translate(0,0)" fill="rgb(253,253,252)" d="M 961.219 1006.36 C 997.864 1005.32 1037.48 1006.28 1074.52 1006.15 C 1108.91 1007.31 1144.31 1003.39 1178.27 1009.64 C 1251.79 1023.19 1287.6 1074.88 1330.82 1128.62 L 1416.04 1234.3 L 1492.48 1328.44 C 1504.39 1343.06 1516.32 1357.69 1528.01 1372.45 C 1538.89 1386.2 1543.46 1394.17 1545.99 1411.66 C 1550.62 1443.6 1539.01 1467.85 1504.79 1472.72 C 1497.37 1473.65 1486.05 1473.03 1478.37 1473.05 L 1425.36 1473.09 L 1346.5 1473.06 C 1299.93 1473.04 1268.12 1475.73 1224.41 1454.56 C 1173.68 1429.99 1148.65 1386.78 1115.87 1343.83 L 1022.6 1220.78 L 962.583 1141.45 C 944.837 1117.93 922.938 1095.72 919.955 1065.75 C 916.864 1034.71 927.02 1009.79 961.219 1006.36 z"/>
</svg>