<svg version="1.1" xmlns="http://www.w3.org/2000/svg" style="display: block;" viewBox="0 0 2172 724" width="2172" height="724" preserveAspectRatio="none">
<path transform="translate(0,0)" fill="rgb(3,85,60)" d="M 1039.68 298.436 C 1068.26 295.771 1090.56 307.386 1114.08 320.579 C 1116.24 319.36 1113.39 299.868 1136.1 300.229 C 1143.49 300.417 1150.5 303.539 1155.59 308.906 C 1161.53 315.123 1157.41 474.541 1157.98 495.001 C 1158.24 504.03 1146.16 513.455 1135.98 513.03 C 1129.86 512.776 1124.11 510.057 1120.02 505.492 C 1115.09 499.987 1115.19 497.685 1115.6 490.922 C 1105.91 496.077 1101.4 500.085 1090.43 505.027 C 1079.64 509.436 1068.24 512.143 1056.62 513.051 C 1026.88 515.534 996.444 507.115 973.515 487.675 C 952.231 469.621 939 443.843 936.741 416.024 C 934.167 386.715 943.675 357.626 963.064 335.495 C 983.441 311.874 1009.07 300.709 1039.68 298.436 z M 1056.47 471.41 C 1092.51 466.387 1117.61 433.025 1112.45 396.999 C 1107.28 360.973 1073.82 336.005 1037.82 341.31 C 1002.01 346.586 977.211 379.821 982.346 415.648 C 987.482 451.474 1020.62 476.405 1056.47 471.41 z"/>
<path transform="translate(0,0)" fill="rgb(3,85,60)" d="M 1631.72 298.408 C 1658.89 296.348 1680.19 304.871 1701.64 320.206 C 1706.1 319.493 1704.6 309.65 1712.19 304.307 C 1717.58 300.552 1724.24 299.107 1730.7 300.293 C 1740.45 302.125 1747.96 310.097 1748.16 320.068 C 1749.18 369.263 1747.75 418.504 1748.56 467.726 C 1748.72 477.529 1749.29 491.441 1747.39 500.752 C 1733.36 518.606 1715.11 518.732 1705.27 497.062 C 1704.63 495.662 1704.1 493.681 1702.91 492.842 C 1696.27 497.07 1691.17 500.209 1684.15 503.911 C 1645.92 519.674 1598.93 516.435 1567.42 488.933 C 1492.18 423.257 1533.28 306.952 1631.72 298.408 z M 1647.52 470.913 C 1683.33 466.108 1708.4 433.115 1703.45 397.331 C 1698.5 361.546 1665.4 336.605 1629.64 341.705 C 1594.08 346.775 1569.32 379.638 1574.24 415.214 C 1579.16 450.791 1611.92 475.691 1647.52 470.913 z"/>
<path transform="translate(0,0)" fill="rgb(3,85,60)" d="M 706.048 297.28 C 765.793 293.044 817.804 337.714 822.637 397.413 C 827.471 457.113 783.323 509.568 723.675 514.998 C 684.556 518.559 646.538 500.839 624.108 468.591 C 601.679 436.344 598.294 394.535 615.244 359.099 C 632.193 323.663 666.866 300.059 706.048 297.28 z M 723.499 470.632 C 758.956 465.342 783.492 432.419 778.427 396.929 C 773.362 361.439 740.596 336.695 705.074 341.535 C 669.233 346.418 644.216 379.544 649.327 415.354 C 654.438 451.164 687.722 475.969 723.499 470.632 z"/>
<path transform="translate(0,0)" fill="rgb(3,85,60)" d="M 1381.24 298.422 C 1392.5 297.742 1403.79 298.896 1414.67 301.839 C 1441.71 308.909 1464.79 326.523 1478.75 350.742 C 1489.54 369.444 1496.13 395.644 1490.46 417.042 C 1488.01 419.396 1482.93 424.161 1479.88 424.618 C 1465.95 426.704 1447.68 425.943 1433.64 425.909 L 1354.65 425.711 C 1349.74 425.702 1331.76 425.28 1328.62 426.288 C 1326.75 433.505 1334.47 442.521 1338.47 447.942 C 1362.41 480.387 1415.36 478.987 1443.13 451.961 C 1446.77 448.422 1451.39 447.885 1456.14 447.504 C 1457.57 447.759 1458.99 448.062 1460.4 448.411 C 1474.15 451.895 1479.07 463.806 1475.65 476.961 C 1454.08 498.845 1432.84 509.725 1401.69 513.06 C 1302.07 523.724 1242.14 413.646 1305.57 336.381 C 1324.89 312.845 1351.07 301.254 1381.24 298.422 z M 1394.5 384.713 C 1401.61 384.762 1441.14 385.856 1445.05 383.469 C 1445.87 381.219 1446.14 380.438 1444.89 378.094 C 1431.11 352.338 1410.25 338.085 1380.19 341.434 C 1363.61 344.905 1346.01 352.977 1336.38 367.578 C 1333.3 372.302 1330.77 377.361 1328.83 382.657 L 1329.19 383.838 C 1336.14 385.381 1383.96 384.707 1394.5 384.713 z"/>
<path transform="translate(0,0)" fill="rgb(3,85,60)" d="M 332.584 211.463 C 352.42 212.234 374.55 225.229 378.549 246.14 C 380.857 258.203 380.044 274.136 380.055 286.603 L 379.94 349.35 L 379.979 430.32 C 379.977 444.734 381.268 465.97 378.58 479.765 C 374.518 500.618 351.515 510.772 333.251 512.506 C 321.122 512.352 310.533 508.389 300.933 500.956 C 281.219 485.694 286.24 453.076 286.23 430.013 L 286.209 353.379 L 286.227 289.141 C 286.234 276.521 286.004 264.508 286.963 251.902 C 288.866 226.903 308.746 213.464 332.584 211.463 z"/>
<path transform="translate(0,0)" fill="rgb(3,85,60)" d="M 1822.16 301.828 C 1820.44 252.467 1846.46 214.207 1897.91 211.265 C 1922.98 209.831 1950.16 206.9 1944.58 241.232 C 1925.91 262.496 1902.95 242.228 1881.41 259.782 C 1872.36 267.159 1863.32 293.3 1870.49 301.564 C 1873.55 302.862 1884.09 302.066 1888.37 302.109 C 1895.82 302 1916.06 301.338 1922.15 302.816 C 1925.99 303.182 1931.99 307.538 1934.02 310.811 C 1938.68 318.307 1937.87 324.049 1936.2 332.273 C 1934.93 333.727 1933.61 335.141 1932.25 336.512 C 1921.95 346.713 1884.85 342.892 1868.53 342.923 L 1868.01 439.891 C 1867.99 457.94 1868.48 476.397 1867.17 494.36 C 1866.42 504.655 1854.92 512.718 1845.06 512.923 C 1839.1 513.074 1833.34 510.76 1829.14 506.527 C 1823.32 500.703 1821.95 494.949 1821.96 487.017 C 1821.96 473.667 1821.96 460.316 1821.98 446.965 L 1822.06 343.135 C 1808.5 342.951 1797.37 345.614 1785.53 338.991 C 1778.41 330.651 1773.39 318.246 1782.55 309.342 C 1792.57 299.61 1809.4 301.698 1822.16 301.828 z"/>
<path transform="translate(0,0)" fill="rgb(7,96,68)" d="M 1888.37 302.109 C 1895.82 302 1916.06 301.338 1922.15 302.816 C 1919.14 303.286 1914.44 303.381 1911.28 303.543 L 1921.25 304.777 C 1908.06 306.534 1902.06 306.443 1889.3 304.792 L 1898.22 303.775 C 1893.92 303.456 1892.46 303.155 1888.37 302.109 z"/>
<path transform="translate(0,0)" fill="rgb(3,85,60)" d="M 414.05 368.29 C 426.798 367.365 488.703 366.843 496.473 372.67 C 528.463 396.659 567.698 453.143 593.259 486.501 C 599.76 494.985 590.628 507.697 580.415 510.986 C 560.698 510.978 526.441 513.458 508.667 509.66 C 503.262 508.505 498.386 506.237 493.576 503.562 C 490.072 501.614 486.359 499.338 483.549 496.441 C 472.222 484.765 402.959 396.212 401.156 389.701 C 399.884 385.107 399.908 379.729 402.406 375.554 C 405.051 371.133 409.334 369.508 414.05 368.29 z"/>
<path transform="translate(0,0)" fill="rgb(20,159,34)" d="M 566.861 212.431 C 567.902 212.352 568.945 212.291 569.989 212.247 C 596.556 211.188 588.965 228.226 584.049 246.369 C 577.085 270.816 565.74 290.368 547.991 308.167 C 511.751 344.51 474.438 347.209 426.75 347.025 C 419.818 347.228 407.868 348.949 405.166 341.21 C 408.9 325.6 441.138 277.678 453.246 264.692 C 485.34 230.273 520.516 215.035 566.861 212.431 z"/>
<path transform="translate(0,0)" fill="rgb(3,85,60)" d="M 872.708 216.241 C 877.378 215.585 881.29 215.275 885.928 216.488 C 892.124 218.058 897.418 222.076 900.595 227.622 C 904.763 235.01 903.45 278.699 903.454 289.652 L 903.517 373.911 L 903.546 447.508 C 903.554 463.569 904.97 486.686 900.828 501.798 C 897.127 505.489 895.426 507.353 890.972 510.102 C 877.145 515.651 869.506 511.669 859.674 501.914 C 855.203 487.79 856.861 462.329 856.885 446.544 L 856.868 357.481 L 856.815 279.858 C 856.804 264.877 855.228 239.377 859.53 225.927 C 865.165 220.932 865.901 219.686 872.708 216.241 z"/>
<path transform="translate(0,0)" fill="rgb(3,85,60)" d="M 1218.01 215.228 C 1230.44 216.754 1232.38 218.941 1240.44 228.453 C 1241.74 238.907 1241.13 261.755 1241.12 273.23 L 1241.02 355.52 L 1241.08 448.071 C 1241.1 463.2 1241.84 485.595 1240.5 500.063 C 1232.95 509.275 1230.88 510.853 1219.25 512.909 C 1211.2 513.019 1197.26 504.483 1196.84 496.33 C 1195.38 468.361 1196.03 439.689 1196.03 411.594 L 1195.94 298.553 C 1195.92 278.654 1195.84 258.642 1196 238.742 C 1196.18 234.933 1196.05 231.593 1197.98 228.185 C 1202.63 219.938 1208.95 216.792 1218.01 215.228 z"/>
</svg>