<svg version="1.1" xmlns="http://www.w3.org/2000/svg" style="display: block;" viewBox="0 0 2048 1365" width="1536" height="1024" preserveAspectRatio="none">
<path transform="translate(0,0)" fill="rgb(16,58,48)" d="M 967.707 469.438 C 997.215 467.33 1017.5 475.709 1039.78 493.704 C 1041.39 476.433 1053.03 466.02 1070.27 475.189 C 1079.15 479.908 1078.94 491.792 1078.92 500.804 C 1078.82 549.732 1079.56 598.797 1078.49 647.702 C 1078.06 666.667 1042.67 676.886 1039.87 642.438 C 1032.38 649.119 1028.4 652.375 1019.45 656.911 C 985.172 674.383 939.302 668.068 909.657 644.189 C 889.556 627.887 876.789 604.24 874.186 578.491 C 871.389 551.75 879.719 525.036 897.22 504.624 C 916.346 481.929 938.797 472.054 967.707 469.438 z M 983.628 628.516 C 1016.82 624.213 1040.35 593.969 1036.36 560.736 C 1032.36 527.503 1002.34 503.694 969.07 507.379 C 935.362 511.113 911.169 541.622 915.216 575.294 C 919.262 608.966 949.995 632.875 983.628 628.516 z"/>
<path transform="translate(0,0)" fill="rgb(16,58,48)" d="M 1510.36 469.41 C 1537.43 467.384 1560.47 474.424 1581.11 491.942 C 1584.27 475.502 1595.44 465.937 1612.37 475.414 C 1620.89 480.188 1620.85 489.346 1620.97 498.231 C 1621.21 516.174 1621.15 534.334 1621.17 552.378 L 1621.2 612.195 C 1621.19 624.131 1621.27 635.419 1620.7 647.623 C 1621.03 663.056 1599.81 670.085 1589.05 660.644 C 1583.71 655.955 1582.43 650.827 1581.81 644.077 C 1575.16 649.109 1570.43 652.796 1563.12 656.914 C 1530.23 673.934 1484.36 668.138 1455.61 645.377 C 1434.88 629.103 1421.56 605.178 1418.65 578.983 C 1415.89 552.645 1423.81 526.302 1440.65 505.859 C 1458.84 483.418 1482 472.293 1510.36 469.41 z M 1527.59 628.21 C 1560.73 623.927 1584.18 593.666 1580.06 560.501 C 1575.94 527.336 1545.79 503.738 1512.6 507.702 C 1479.19 511.693 1455.4 542.092 1459.55 575.483 C 1463.7 608.873 1494.22 632.521 1527.59 628.21 z"/>
<path transform="translate(0,0)" fill="rgb(16,58,48)" d="M 661.305 468.212 C 716.536 463.658 764.992 504.761 769.508 559.994 C 774.025 615.228 732.89 663.656 677.654 668.135 C 622.47 672.61 574.098 631.523 569.586 576.342 C 565.073 521.162 606.128 472.762 661.305 468.212 z M 675.549 628.507 C 708.936 625.227 733.322 595.469 729.976 562.088 C 726.631 528.706 696.826 504.379 663.451 507.789 C 630.168 511.19 605.922 540.896 609.258 574.185 C 612.594 607.475 642.253 631.778 675.549 628.507 z"/>
<path transform="translate(0,0)" fill="rgb(16,58,48)" d="M 1283.55 469.424 C 1308.24 468.16 1329.61 473.174 1349.49 488.786 C 1369.51 504.655 1383.47 528.978 1386.33 554.418 C 1387.17 563.171 1387.69 574.248 1380.17 580.483 C 1374.08 585.543 1364.95 585.181 1357.49 585.261 C 1316.61 585.696 1275.1 584.039 1234.28 585.352 C 1248.97 628.358 1302.39 642.982 1336.77 612.6 C 1340.67 609.159 1344.23 606.542 1349.26 605.159 L 1350.26 604.889 C 1370.04 605.273 1381.4 622.657 1367.33 636.602 C 1306.57 696.813 1199.77 663.238 1191.41 576.942 C 1188.83 551.035 1196.74 525.175 1213.37 505.144 C 1231.85 482.717 1255.13 472.091 1283.55 469.424 z M 1234.38 547.505 C 1253.47 546.691 1274.57 547.098 1293.82 547.131 C 1310.51 547.109 1328.52 547.425 1345.09 546.979 C 1335.53 520.556 1314.19 505.881 1285.82 508.261 C 1260.98 511.889 1243.91 523.955 1234.38 547.505 z"/>
<path transform="translate(0,0)" fill="rgb(16,58,48)" d="M 318.423 393.329 C 331.712 392.428 345.342 398.827 353.756 408.893 C 365.51 422.955 362.607 450.257 362.649 468.165 L 362.424 539.272 C 362.362 569.092 362.856 598.904 362.138 628.71 C 361.63 649.792 348.47 660.563 329.028 665.088 C 276.689 666.692 278.951 634.904 278.933 594.788 L 278.966 531.636 L 278.942 468.778 C 278.937 433.927 274.048 400.048 318.423 393.329 z"/>
<path transform="translate(0,0)" fill="rgb(16,58,48)" d="M 1754.69 393.361 C 1771.42 391.369 1806.38 389.208 1805.96 412.255 C 1805.64 429.374 1786.57 430.747 1774.45 430.127 C 1745.48 428.646 1730.02 443.415 1729.88 472.102 C 1741.77 472.004 1753.77 472.128 1766 471.804 C 1780.79 471.411 1797.51 473.857 1796.8 493.317 C 1796.54 500.422 1790.64 504.928 1785.2 508.633 C 1768.94 509.934 1746.32 509.023 1729.2 509.328 L 1729.14 628.432 C 1729.28 637.536 1730.54 650.872 1724.42 658.251 C 1714.36 670.281 1691.28 664.51 1689.91 648.162 C 1688.68 633.53 1689.29 617.98 1689.33 603.223 L 1689.5 509.822 C 1679.2 509.491 1662.42 511.757 1654.19 505.332 C 1645.87 498.599 1646.21 485.033 1653.41 477.765 C 1661.62 469.472 1678.64 471.944 1689.87 472.18 C 1691.28 431.013 1711.89 399.262 1754.69 393.361 z"/>
<path transform="translate(0,0)" fill="rgb(16,58,48)" d="M 408.957 531.459 C 424.921 530.192 455.057 528.765 469.24 535.262 C 472.032 536.54 474.712 538.803 477.045 540.777 C 489.039 550.925 549.09 624.328 557.997 639.339 C 559.52 641.955 560.373 644.906 560.48 647.931 C 561.071 661.098 548.876 665.034 538.101 665.083 C 519.169 664.95 491.185 667.098 473.358 661.784 C 471.066 661.101 463.496 655.3 461.682 653.452 C 446.406 636.941 433.616 621.02 419.828 602.672 C 410.566 590.348 385.55 564.084 383.016 549.437 C 380.564 535.26 396.977 531.687 408.957 531.459 z"/>
<path transform="translate(0,0)" fill="rgb(1,161,37)" d="M 527.564 393.426 C 534.681 393.143 547.331 391.651 552.669 396.085 C 563.033 415.143 535.588 461.729 520.623 475.953 C 488.103 506.864 458.022 513.329 414.75 513.136 C 408.232 513.193 396.989 514.279 391.161 511.764 C 384.965 508.535 390.643 500.182 392.412 496.275 C 419.257 436.989 461.627 398.738 527.564 393.426 z"/>
<path transform="translate(0,0)" fill="rgb(16,58,48)" d="M 821.56 396.295 C 840.547 398.27 842.747 408.304 842.74 424.629 C 842.727 452.015 842.775 479.417 842.773 506.804 L 842.8 591.798 C 842.839 609.086 843.038 626.319 842.623 643.607 C 842.295 657.238 836.827 661.975 824.353 665.15 C 816.002 664.425 804.318 659.665 803.081 650.104 C 801.33 636.582 802.288 620.856 802.398 607.109 L 802.435 541.001 L 802.407 459.582 C 802.405 444.798 802.188 429.992 802.751 415.221 C 803.21 403.202 810.985 398.402 821.56 396.295 z"/>
<path transform="translate(0,0)" fill="rgb(16,58,48)" d="M 1128.87 397.12 C 1132.51 396.69 1136.47 396.478 1140.05 397.425 C 1145.5 398.867 1150.09 402.023 1152.75 407.084 C 1155.19 411.725 1155.03 417.887 1155.22 423.039 C 1155.98 443.327 1156.46 645.47 1154.17 651.823 C 1151.91 658.097 1146.75 661.532 1141.08 664.37 C 1124.57 666.276 1115.15 659.249 1115.23 640.997 C 1115.58 564.289 1113.83 486.801 1115.93 410.183 C 1116.08 404.783 1124.17 399.468 1128.87 397.12 z"/>
<path transform="translate(0,0)" fill="rgb(226,179,122)" d="M 1048.83 777.475 C 1053.07 777.26 1057.31 777.153 1061.55 777.154 C 1071.23 777.243 1081.15 780.398 1088 787.478 C 1093.63 793.323 1096.7 801.171 1096.53 809.286 C 1096.33 819.949 1091.63 828.113 1084.09 835.231 C 1070.97 843.356 1058.44 841.37 1043.25 840.833 C 1043.04 828.303 1041.92 791.019 1043.45 780.223 C 1045.62 777.433 1044.55 778.302 1048.83 777.475 z M 1053.39 831.755 C 1064.77 833.169 1069.62 833.106 1079.4 827.395 C 1083.99 821.356 1087.27 813.428 1086.19 805.738 C 1085.33 799.802 1082 794.502 1077.04 791.136 C 1069.03 785.707 1062.85 786.502 1053.69 786.996 C 1053.59 800.533 1052.58 818.737 1053.39 831.755 z"/>
<path transform="translate(0,0)" fill="rgb(226,179,122)" d="M 1532.09 796.213 C 1542.4 795.758 1550.03 797.07 1555.13 807.469 C 1558.17 813.805 1558.6 821.084 1556.33 827.734 C 1554.4 833.31 1550.29 837.865 1544.95 840.359 C 1536.88 844.17 1531.5 841.169 1523.61 838.266 L 1522.32 840.308 C 1522.39 846.615 1524.26 856.295 1518.01 859.109 C 1514.25 858.187 1515.44 859.035 1513.26 856.222 C 1512.41 848.498 1512.36 805.504 1513.98 798.333 C 1516.16 797.012 1517.55 797.336 1520.12 797.409 C 1525.42 800.996 1526.6 798.812 1532.09 796.213 z M 1538.12 833.718 C 1553.97 826.049 1552.42 806.508 1531.81 804.111 C 1515.55 811.876 1519.49 834.578 1538.12 833.718 z"/>
<path transform="translate(0,0)" fill="rgb(226,179,122)" d="M 727.728 775.494 C 741.389 777.653 730.35 820.536 734.299 831.477 C 735.431 834.611 734.241 840.339 730.172 841.942 C 727.851 841.336 727.158 840.19 725.475 838.412 L 724.789 837.678 C 713.23 837.93 718.018 846.924 699.01 838.479 C 694.286 834.007 693.423 832.282 690.109 826.579 C 688.899 799.074 698.73 792.611 724.107 799.744 C 726.782 795.707 722.666 783.35 727.728 775.494 z M 718.85 832.72 C 731.187 820.959 726.628 803.801 708.339 804.897 C 707.626 804.942 706.913 804.995 706.201 805.054 C 693.932 818.697 700.417 838.039 718.85 832.72 z"/>
<path transform="translate(0,0)" fill="rgb(16,58,48)" d="M 968.938 906.337 C 985.229 905.871 1014.41 902.217 1008.39 929.587 C 1007.09 935.461 1001.85 938.286 997.007 940.992 C 1000.31 945.887 1010.49 959.022 1009.52 964.247 C 1005.63 966.032 1003.76 965.032 1001.12 962.366 C 996.54 956.163 991.749 948.761 988.355 941.875 L 976.232 941.959 C 975.705 949.319 979.078 960.843 973.051 964.853 C 969.485 964.634 970.363 965.235 968.398 963.222 C 967.632 956.146 966.936 910.232 968.938 906.337 z M 976.156 933.911 C 982.879 934.166 987.555 934.457 994.305 933.655 C 998.462 930.829 1003.97 925.05 999.938 919.616 C 995.258 913.311 987.18 914.072 980.213 914.58 L 977.714 914.963 C 975.763 918.93 976.226 929.071 976.156 933.911 z"/>
<path transform="translate(0,0)" fill="rgb(226,179,122)" d="M 845.751 796.396 C 858.307 793.869 870.519 802.049 872.961 814.623 C 875.402 827.196 867.139 839.352 854.549 841.708 C 842.08 844.041 830.066 835.874 827.648 823.421 C 825.23 810.969 833.315 798.899 845.751 796.396 z M 852.773 834.325 C 861.674 829.671 867.17 820.923 861.97 811.163 C 860.091 807.688 856.814 805.184 852.968 804.284 C 851.691 803.986 850.03 803.908 848.707 803.868 C 830.686 810.931 833.11 832.041 852.773 834.325 z"/>
<path transform="translate(0,0)" fill="rgb(226,179,122)" d="M 1472.29 796.478 C 1484.6 794.331 1496.37 802.426 1498.77 814.692 C 1501.17 826.959 1493.32 838.894 1481.11 841.547 C 1472.98 843.312 1464.53 840.545 1459.02 834.312 C 1453.51 828.079 1451.81 819.355 1454.56 811.505 C 1457.31 803.656 1464.09 797.908 1472.29 796.478 z M 1478.48 834.33 C 1495.74 825.743 1492.64 804.834 1474.53 803.841 C 1455.72 811.918 1460.38 833.39 1478.48 834.33 z"/>
<path transform="translate(0,0)" fill="rgb(16,58,48)" d="M 652.984 905.59 L 657.491 906.298 C 663.182 910.57 676.101 935.403 680.363 942.793 C 687.64 932.101 692.436 920.156 699.732 909.595 C 701.946 906.389 705.374 906.071 708.261 908.472 C 709.531 915.419 709.565 957.048 708.189 963.702 L 705.961 964.992 C 702.338 964.643 703.648 965.255 700.965 962.936 C 700.102 956.07 700.712 943.7 700.891 936.349 L 700.525 923.596 C 695.957 930.919 687.315 950.418 679.472 951.693 C 673.545 948.959 663.931 929.859 659.837 923.019 C 659.885 935.179 659.876 947.437 659.763 959.597 C 659.73 963.084 659.636 963.531 657.61 965.342 C 652.318 965.237 650.827 960.354 650.906 956.052 C 651.056 947.921 649.232 910.056 652.984 905.59 z"/>
<path transform="translate(0,0)" fill="rgb(16,58,48)" d="M 1269.11 923.198 C 1275.86 923.086 1280.04 923.056 1285.28 927.413 L 1286.08 928.091 C 1287.27 926.766 1288.09 925.398 1289.06 923.91 C 1291.85 923.273 1290.45 923.153 1293.3 924.829 C 1294.53 932.49 1294.2 954.674 1293.59 963.298 C 1293.49 964.638 1291.91 965.163 1290.84 965.723 C 1288.52 964.986 1288.01 963.762 1286.52 961.745 L 1285.92 960.929 L 1284.58 962.335 C 1273.23 969.407 1259.89 966.687 1254.71 953.672 C 1252.33 947.661 1252.45 940.945 1255.06 935.026 C 1258.17 927.998 1262.37 925.733 1269.11 923.198 z M 1279.27 958.232 C 1293.49 947.956 1287.89 928.888 1267.69 931.156 C 1255.36 942.395 1260.77 962.58 1279.27 958.232 z"/>
<path transform="translate(0,0)" fill="rgb(226,179,122)" d="M 1389.32 777.751 C 1392.23 777.536 1393.85 777.043 1396.24 778.39 C 1399.8 783.359 1398.27 797.282 1398.47 804.965 C 1406.28 805.456 1420.93 805.181 1428.55 804.249 C 1428.27 797.452 1426.89 784.488 1429.86 778.851 C 1433.14 777.419 1434.94 777.567 1437.47 779.997 C 1438.64 786.501 1438.56 835.904 1437.04 841.178 L 1435.76 841.186 C 1432.38 841.184 1429.72 841.126 1428.68 837.425 C 1426.75 830.604 1428.03 821.06 1428.45 814.027 C 1417.26 812.661 1409.18 813.028 1398.15 814.091 C 1398.26 819.848 1399.39 836.445 1396.47 840.734 C 1393.27 841.101 1392.93 841.318 1390.17 839.952 C 1387.44 834.416 1388.9 787.055 1389.32 777.751 z"/>
<path transform="translate(0,0)" fill="rgb(16,58,48)" d="M 742.838 923.577 C 754.519 921.671 765.522 929.633 767.362 941.326 C 769.203 953.018 761.18 963.975 749.478 965.751 C 737.867 967.513 727.014 959.566 725.188 947.965 C 723.361 936.365 731.248 925.468 742.838 923.577 z M 746.741 959.437 C 764.677 952.908 763.123 933.674 747.164 930.359 C 728.021 934.137 728.808 954.306 746.741 959.437 z"/>
<path transform="translate(0,0)" fill="rgb(226,179,122)" d="M 538.128 777.141 C 547.055 776.707 562.714 776.81 564.554 788.522 L 563.278 789.721 C 554.688 790.763 532.371 777.53 533.223 795.947 C 537.367 803.759 550.723 804.184 557.557 808.925 C 576.97 822.392 566.33 837.209 547.76 842.028 C 539.512 842.213 519.651 839.047 521.556 827.41 C 527.226 824.067 540.739 833.794 548.439 833.39 C 553.978 830.988 557.884 828.358 556.401 821.717 C 549.322 809.984 511.267 812.111 525.137 786.716 C 528.666 780.255 531.545 779.407 538.128 777.141 z"/>
<path transform="translate(0,0)" fill="rgb(226,179,122)" d="M 1587.64 796.106 C 1601.67 795.57 1612.04 802.81 1612.04 817.597 C 1606.75 828.253 1587.38 817.313 1579.43 822.825 C 1577.73 829.399 1585.19 832.52 1590.48 834.447 C 1593.97 835.72 1600.36 832.152 1603.54 830.175 C 1604.99 829.194 1604.2 829.593 1606.58 829.827 C 1608.99 832.309 1608.45 831.082 1608.97 834.356 C 1602.58 847.532 1575.05 844.281 1570.13 825.959 C 1568.35 819.458 1569.22 812.515 1572.56 806.657 C 1576.31 800.144 1580.92 798.008 1587.64 796.106 z"/>
<path transform="translate(0,0)" fill="rgb(226,179,122)" d="M 597.393 796.221 C 609.158 795.605 624.249 804.795 622.617 816.894 C 616.929 827.586 591.612 817.303 588.391 825.48 C 595.291 835.933 603.45 835.377 613.075 829.889 C 616.428 829.561 615.244 829.202 617.826 830.834 C 620.442 843.521 587.895 849.337 580.414 827.284 C 578.259 820.866 578.751 813.853 581.782 807.798 C 585.619 800.22 589.987 798.566 597.393 796.221 z M 606.25 814.664 L 610.946 814.319 L 612.28 812.753 C 611.115 805.466 604.817 803.464 598.263 804.031 C 591.28 806.382 591.37 808.1 588.696 814.571 C 594.547 814.642 600.398 814.673 606.25 814.664 z"/>
<path transform="translate(0,0)" fill="rgb(226,179,122)" d="M 1126.34 796.167 C 1138.37 795.651 1150.48 802.468 1150.81 815.691 C 1151.15 829.42 1125.15 816.887 1117.8 822.901 C 1117.49 824.339 1116.78 826.063 1117.86 827.055 C 1126.18 834.66 1133.24 835.204 1141.74 830.25 C 1143.28 829.567 1143.74 829.823 1145.55 829.891 C 1147.69 832.016 1147.05 830.75 1147.37 833.901 C 1140.46 847.616 1115.08 843.784 1109.36 827.411 C 1107.17 821.048 1107.64 814.066 1110.68 808.058 C 1114.41 800.755 1119.04 798.509 1126.34 796.167 z M 1117.45 814.976 L 1132.75 814.676 C 1136.87 814.772 1137.66 815.459 1140.88 813.592 C 1143.29 805.417 1131.53 803.648 1125.5 804.22 C 1119.92 807.525 1120.07 808.514 1117.45 814.976 z"/>
<path transform="translate(0,0)" fill="rgb(226,179,122)" d="M 950.456 796.165 C 954.903 795.946 957.967 796.34 962.184 797.688 C 969.22 799.938 977.077 812.608 974.218 819.649 C 966.976 826.792 947.404 817.273 942.157 823.961 C 943.239 829.724 947.497 832.097 952.599 834.193 C 956.169 835.66 961.144 832.759 964.345 831.102 L 966.506 829.797 C 969.896 829.77 968.714 829.281 970.946 831.37 C 972.422 844.702 939.542 848.526 933.013 826.309 C 931.109 819.922 931.886 813.035 935.165 807.233 C 938.974 800.422 943.354 798.184 950.456 796.165 z M 941.588 814.866 L 959.25 814.823 L 964.144 814.535 L 965.4 812.968 C 963.876 806.056 958.02 803.409 951.362 804.124 C 944.216 806.404 944.34 808.258 941.588 814.866 z"/>
<path transform="translate(0,0)" fill="rgb(226,179,122)" d="M 1283.66 796.185 C 1284.52 796.155 1285.37 796.14 1286.23 796.141 C 1291.46 796.149 1297.82 797.5 1301.2 801.65 C 1327.17 833.57 1282.53 817.188 1274.98 823.018 C 1274.83 824.744 1274.46 825.706 1275.69 827.1 C 1283.37 835.813 1291.47 835.351 1299.84 829.882 C 1301.34 829.347 1301.71 829.738 1303.54 830.085 C 1305.51 832.429 1304.89 831.09 1305.21 834.346 C 1303.4 837.639 1301.22 839.567 1297.56 840.774 C 1275.81 847.933 1258.32 827.642 1268.45 807.333 C 1271.79 800.632 1276.78 798.205 1283.66 796.185 z M 1274.68 815.071 C 1280.38 814.938 1286.65 814.647 1292.28 814.978 C 1296.12 814.514 1296.41 815.156 1298.74 812.826 C 1298.46 805.715 1288.61 803.866 1282.87 803.833 C 1277.92 807.729 1277.18 808.887 1274.68 815.071 z"/>
<path transform="translate(0,0)" fill="rgb(16,58,48)" d="M 1093.92 923.196 C 1105.85 922.415 1102.1 927.066 1110.67 928.862 C 1115.12 925.98 1119.03 923.361 1124.18 922.498 C 1140.1 919.831 1142.69 958.653 1135.43 965.028 L 1133.1 964.818 C 1125.87 958.165 1136.69 931.936 1122.63 929.812 C 1113.43 928.422 1111.91 941.586 1111.95 947.75 C 1112.08 952.579 1112.66 959.251 1111.24 963.651 C 1108.47 965.715 1109.97 965.249 1106.65 965.274 C 1100.11 959.155 1110.1 930.129 1095.06 930.686 C 1077.41 931.34 1090.51 959.184 1082.73 966.057 C 1077.72 964.635 1077.38 956.388 1077.74 952.011 C 1078.34 944.642 1074.75 928.326 1081.25 923.865 C 1084.63 924.632 1083.43 924.103 1086.01 927.454 L 1087.37 927.348 C 1089.93 925.008 1090.75 924.762 1093.92 923.196 z"/>
<path transform="translate(0,0)" fill="rgb(16,58,48)" d="M 852.411 923.191 C 862.341 922.674 878.293 931.601 875.715 943.443 C 873.859 951.971 852.191 943.904 843.716 947.628 C 843.062 949.427 842.34 950.208 843.556 951.841 C 850.365 960.988 858.839 959.685 866.721 955.669 L 868.128 954.929 C 870.986 955.408 869.783 954.759 871.734 957.145 C 870.207 967.478 854.722 967.697 847.002 964.224 C 841.891 961.942 837.943 957.659 836.085 952.379 C 833.971 946.425 834.439 939.859 837.377 934.265 C 840.94 927.5 845.527 925.251 852.411 923.191 z M 858.25 940.773 C 862.686 940.568 863 941.291 866.133 938.92 C 866.222 932.619 859.937 930.96 854.805 930.217 C 851.121 931.158 846.588 933.015 844.26 936.167 C 844.26 942.628 853.626 940.971 858.25 940.773 z"/>
<path transform="translate(0,0)" fill="rgb(16,58,48)" d="M 1040.52 923.095 C 1052.15 923.234 1066.13 931.68 1061.87 944.09 C 1053.4 951.873 1037.57 942.982 1031.95 949.446 C 1034.02 961.874 1047.71 958.636 1055.77 955.535 L 1057.86 955.265 L 1059.49 957.178 L 1058.97 959.645 C 1052.43 967.262 1043.05 968.33 1034.34 964.011 C 1029.45 961.608 1025.75 957.323 1024.09 952.14 C 1022.04 946.044 1022.61 939.371 1025.66 933.709 C 1029.22 927.103 1033.84 924.999 1040.52 923.095 z M 1045.04 940.789 C 1049.98 940.733 1050.66 941.6 1053.96 939.087 C 1054.41 932.888 1046.57 930.043 1041.34 929.878 C 1037.5 931.854 1035.84 932.445 1033.02 935.87 L 1032.59 938.117 C 1036.27 942.101 1039.79 940.966 1045.04 940.789 z"/>
<path transform="translate(0,0)" fill="rgb(16,58,48)" d="M 1429.47 923.19 C 1441.71 923.33 1456.49 932.49 1450.69 945.746 C 1449.34 948.833 1426.33 946.032 1421.2 947.23 C 1419.04 950.198 1419.43 948.789 1419.67 952.314 C 1425.56 959.124 1434.99 959.774 1442.79 956.102 L 1444.62 955.029 C 1447.41 955.578 1446.21 954.915 1448.12 957.389 C 1446.45 970.732 1417.94 969.783 1412.56 950.71 C 1410.85 944.779 1411.66 938.405 1414.79 933.085 C 1418.49 926.729 1422.97 924.979 1429.47 923.19 z M 1438.22 940.667 L 1442 940.043 L 1443.05 938.349 C 1440.74 930.875 1433.52 930.094 1426.77 930.981 C 1424.16 933.422 1422.37 934.679 1420.98 937.965 L 1421.54 939.83 C 1425.5 941.592 1433.44 940.749 1438.22 940.667 z"/>
<path transform="translate(0,0)" fill="rgb(226,181,128)" d="M 655.33 796.175 C 667.15 795.387 670.493 799.187 675.837 808.579 C 675.918 815.315 677.5 836.276 674.491 840.453 C 671.829 841.448 671.328 841.143 668.4 840.616 C 661.562 831.657 676.047 804.401 655.554 803.933 C 638.73 808.368 649.793 828.88 644.587 839.916 C 641.934 841.902 643.404 841.433 639.989 841.237 C 632.625 835.415 635.843 809.252 636.611 800.406 C 636.981 796.151 647.961 800.416 655.33 796.175 z"/>
<path transform="translate(0,0)" fill="rgb(226,179,122)" d="M 783.755 776.282 L 786.563 777.194 C 794.118 783.676 787.188 818.183 789.439 828.106 C 791.803 838.523 809.208 828.625 817.89 834.007 C 819.616 837.475 819.105 836.304 818.404 840.874 C 805.936 841.489 792.531 841.079 779.978 840.919 C 779.173 822.277 779.351 802.595 779.908 783.9 C 780.035 779.634 780.912 779.046 783.755 776.282 z"/>
<path transform="translate(0,0)" fill="rgb(16,58,48)" d="M 800.099 923.049 C 817.272 922.133 820.341 934.459 820.798 948.748 C 821.015 955.553 822.045 962.75 814.863 965.225 C 806.695 959.471 820.757 931.14 800.021 930.81 L 798.867 930.797 C 783.739 939.243 796.395 964.183 785.131 965.011 C 781.005 961.379 782.029 928.228 785.133 923.673 C 789.142 923.935 787.594 927.096 792.535 927.67 C 795.383 925.44 796.969 924.677 800.099 923.049 z"/>
<path transform="translate(0,0)" fill="rgb(16,58,48)" d="M 885.97 923.862 C 887.881 923.831 889.584 924.02 891.478 924.187 C 896.981 928.519 902.95 946.304 906.068 953.812 C 909.784 946.219 914.753 929.158 919.875 924.543 C 922.298 924.062 922.931 923.726 925.24 924.66 C 926.788 929.506 918.937 944.065 916.534 949.261 C 913.035 957.219 906.322 975.136 901.379 981.134 C 898.103 982.349 899.485 982.154 896.031 981.571 L 895.219 979.509 C 895.893 974.555 899.581 968.275 901.944 963.642 C 898.605 956.798 885.697 930.149 885.97 923.862 z"/>
<path transform="translate(0,0)" fill="rgb(226,179,122)" d="M 881.106 796.291 C 896.37 796.881 893.83 815.661 902.951 827.536 C 907.025 819.844 912.782 796.433 921.188 795.812 L 923.103 798.002 C 923.912 801.996 922.802 802.901 921.31 807.244 C 918.31 814.603 910.456 837.273 904.707 840.96 C 902.582 841.063 901.436 841.299 899.544 839.598 C 893.453 834.123 881.753 803.022 881.106 796.291 z"/>
<path transform="translate(0,0)" fill="rgb(226,179,122)" d="M 1215.22 796.773 C 1218.23 796.688 1218.44 796.663 1221.3 797.487 C 1226.68 801.843 1233 821.134 1235.87 828.417 C 1239.75 820.865 1245.47 798.879 1253.29 796.095 C 1258.5 798.714 1255.54 804.581 1253.78 808.344 C 1250.65 816.298 1243.65 838.64 1236.55 841.315 C 1228.18 838.546 1214.41 803.683 1215.22 796.773 z"/>
<path transform="translate(0,0)" fill="rgb(16,58,48)" d="M 1380.34 923.198 C 1387.34 922.991 1398.54 923.84 1400.79 932.234 C 1396.18 938.639 1375.54 924.023 1372.12 936.779 C 1367.99 952.236 1378 964.815 1393.57 955.863 L 1395.35 954.345 C 1398.41 954.557 1397.04 954.001 1399.4 956.455 L 1399.21 959.032 C 1394.62 967.386 1383.65 967.71 1375.71 964.553 C 1370.68 962.556 1366.72 958.548 1364.78 953.499 C 1359.47 939.716 1366.88 927.857 1380.34 923.198 z"/>
<path transform="translate(0,0)" fill="rgb(16,58,48)" d="M 1185.1 910.541 C 1189.35 910.73 1191.2 910.306 1193.05 914.332 C 1190.22 929.031 1196.31 921.183 1202.99 925.075 C 1203.65 927.798 1203.51 926.844 1202.59 929.833 C 1200.17 931.776 1196.21 931.335 1192.82 931.425 C 1192.7 938.061 1192.08 948.785 1193.23 955.048 C 1193.89 958.635 1200.18 957.256 1204.36 959.698 C 1205.1 962.931 1204.98 961.75 1203.75 965.265 C 1179.21 969.112 1184.12 948.584 1185.16 931.494 C 1181.09 931.684 1179.32 931.334 1176.85 928.039 L 1177.13 926.279 C 1179.88 923.316 1179.37 924.217 1184.47 923.695 C 1184.43 918.553 1184.41 915.618 1185.1 910.541 z"/>
<path transform="translate(0,0)" fill="rgb(16,58,48)" d="M 1222.93 910.725 C 1226.14 910.71 1226.33 910.646 1229.24 911.828 C 1231.6 916.249 1228.39 917.137 1229.56 921.257 C 1230.96 926.185 1235.56 922.087 1241.11 924.974 C 1241.76 928.024 1241.75 926.798 1240.64 929.881 C 1237.65 932.029 1233.98 931.319 1230.03 931.193 C 1229.5 971.731 1234.59 948.019 1243.11 963.48 C 1216.32 977.7 1224.39 942.506 1221.24 932.061 L 1216.69 930.817 C 1214.55 928.028 1215.11 929.32 1214.97 925.548 C 1216.99 923.465 1217.33 924.09 1221.01 923.558 C 1222.69 921.071 1221.64 915.847 1222.93 910.725 z"/>
<path transform="translate(0,0)" fill="rgb(226,179,122)" d="M 1341.2 796.112 C 1343.16 796.142 1345.08 796.568 1347.02 796.91 C 1349.21 799.097 1348.66 797.931 1348.74 801.51 C 1345.25 807.15 1340.16 804.59 1336.05 807.053 C 1328.07 811.833 1333.9 829.687 1331.5 837.499 C 1330.43 840.959 1329.12 840.928 1326 842.697 C 1319.42 837.215 1321.67 806.753 1323.3 798.004 C 1323.57 796.566 1325.67 796.324 1326.78 796.04 C 1329.35 796.984 1329.56 797.555 1331.42 799.766 L 1331.99 800.451 L 1333.44 800.305 C 1336.66 797.631 1337.21 797.433 1341.2 796.112 z"/>
<path transform="translate(0,0)" fill="rgb(16,58,48)" d="M 1311.94 935.013 C 1311.79 931.53 1311.1 927.457 1312.74 924.669 C 1315.7 922.973 1314.2 923.175 1317.36 923.803 C 1318.54 925.036 1319.65 926.214 1320.92 927.365 C 1331.31 923.615 1343.41 918.22 1347.28 933.51 C 1349.57 942.567 1348.87 953.118 1348.71 962.441 C 1346.69 964.981 1347.69 964.187 1344.04 965.074 L 1341.54 964.192 C 1337.64 955.263 1345.5 936.781 1335.58 931.674 C 1329.24 928.413 1323.68 932.972 1320.17 937.879 L 1311.94 935.013 z"/>
<path transform="translate(0,0)" fill="rgb(226,179,122)" d="M 1194.41 796.486 C 1195.87 796.672 1197.56 797.029 1199.04 797.299 C 1204.33 802.051 1202.94 836.656 1199.02 842.265 C 1196.48 841.653 1193.34 840.815 1192.99 837.815 C 1191.88 828.171 1190.59 804.721 1194.41 796.486 z"/>
<path transform="translate(0,0)" fill="rgb(226,179,122)" fill-opacity="0.72549" d="M 1165.59 776.885 L 1166.13 784.296 C 1168.07 785.48 1170.37 784.354 1173.22 783.729 C 1171.16 790.063 1176.08 828.854 1173.35 841.138 C 1173.01 835.51 1173.69 830.528 1168.73 827.383 C 1166.56 827.524 1166.7 827.659 1164.97 829.045 C 1165.09 817.767 1164.41 785.276 1165.59 776.885 z"/>
<path transform="translate(0,0)" fill="rgb(16,58,48)" d="M 1156.02 923.515 C 1159.33 923.837 1160.85 923.64 1163.33 925.675 C 1164.36 930.527 1163.69 958.682 1163.62 964.983 C 1160.49 965.104 1159.27 965.442 1156.54 964.15 C 1155.28 959.081 1155.79 930.101 1156.02 923.515 z"/>
<path transform="translate(0,0)" fill="rgb(226,179,122)" d="M 419.223 811.496 C 425.815 811.292 437.124 810.102 441.027 816.716 L 439.622 818.738 C 435.793 820.29 434.266 820.103 430.25 820.116 C 423.263 820.059 416.615 820.84 409.711 819.574 C 407.125 817.391 407.946 818.459 406.815 815.206 L 407.993 813.346 C 411.459 811.387 415.238 811.625 419.223 811.496 z"/>
<path transform="translate(0,0)" fill="rgb(226,179,122)" d="M 1668.45 811.553 C 1673.56 811.147 1680.92 810.302 1684.32 814.95 L 1683.63 816.522 C 1676.89 821.428 1670.98 820.213 1662.75 819.945 C 1657.9 819.997 1652.94 820.712 1650.52 815.995 C 1654 810.713 1662.88 811.511 1668.45 811.553 z"/>
<path transform="translate(0,0)" fill="rgb(226,179,122)" d="M 470.802 811.47 C 471.811 811.401 472.822 811.352 473.834 811.323 C 477.88 811.222 479.674 811.359 482.528 814.082 L 482.575 816.193 C 478.121 821.489 472.644 820.198 466.25 820.018 C 461.406 820.139 452.031 821.128 450.085 816.005 C 454.205 810.885 464.82 811.5 470.802 811.47 z"/>
<path transform="translate(0,0)" fill="rgb(226,179,122)" d="M 1703.06 811.396 C 1709.89 811.742 1718.37 810.417 1724.41 812.882 C 1726.55 815.516 1726.06 814.046 1725.92 817.437 C 1724.01 819.896 1724.89 819.117 1721.25 820.002 C 1713.43 819.883 1703.68 821.426 1696.74 818.672 C 1694.46 816.015 1694.95 817.385 1695.05 813.716 C 1698.01 811.428 1699 811.946 1703.06 811.396 z"/>
<path transform="translate(0,0)" fill="rgb(16,58,48)" d="M 1311.94 935.013 L 1320.17 937.879 C 1319.66 945.642 1322.39 960.17 1316.58 965.056 C 1313.44 964.823 1314.37 965.347 1312.39 963.506 C 1311.35 956.855 1312.05 942.936 1311.94 935.013 z"/>
<path transform="translate(0,0)" fill="rgb(226,179,122)" d="M 990.251 830.431 C 993.571 830.49 993.868 830.372 996.765 831.791 C 1002.06 839.434 996.246 847.916 990.315 853.31 L 987.286 851.634 C 986.739 848.256 988.28 847.597 990.806 843.959 C 990.92 840.016 990.561 840.754 988.078 837.094 C 987.879 833.758 988.375 833.431 990.251 830.431 z"/>
<path transform="translate(0,0)" fill="rgb(226,181,128)" d="M 1194.22 777.442 C 1197.16 775.979 1200.72 777.171 1202.19 780.104 C 1203.65 783.037 1202.46 786.602 1199.53 788.071 C 1196.6 789.542 1193.02 788.352 1191.56 785.414 C 1190.09 782.477 1191.28 778.906 1194.22 777.442 z"/>
<path transform="translate(0,0)" fill="rgb(226,181,128)" fill-opacity="0.972549" d="M 1164.97 829.045 C 1166.7 827.659 1166.56 827.524 1168.73 827.383 C 1173.69 830.528 1173.01 835.51 1173.35 841.138 C 1169.79 841.194 1169.14 841.46 1166.22 839.741 C 1164.36 836.777 1164.93 832.778 1164.97 829.045 z"/>
<path transform="translate(0,0)" fill="rgb(16,58,48)" d="M 1157.68 906.373 C 1160.25 905.188 1163.3 906.323 1164.48 908.904 C 1165.66 911.485 1164.51 914.531 1161.93 915.701 C 1159.36 916.867 1156.32 915.73 1155.15 913.159 C 1153.98 910.587 1155.11 907.552 1157.68 906.373 z"/>
<path transform="translate(0,0)" fill="rgb(226,181,128)" fill-opacity="0.988235" d="M 1165.59 776.885 C 1168.8 776.158 1169.76 775.576 1172.54 776.883 C 1174.24 779.503 1174.26 780.58 1173.22 783.729 C 1170.37 784.354 1168.07 785.48 1166.13 784.296 L 1165.59 776.885 z"/>
</svg>