<svg version="1.1" xmlns="http://www.w3.org/2000/svg" style="display: block;" viewBox="0 0 2172 724" width="2172" height="724" preserveAspectRatio="none">
<path transform="translate(0,0)" fill="rgb(3,82,56)" d="M 1655.42 329.366 C 1677.64 327.537 1703.41 332.096 1722.58 344.106 C 1727.39 347.121 1731.72 350.479 1736.88 352.897 C 1746.41 325.808 1764.12 319.805 1785.23 341.182 C 1788.16 355.375 1787.98 368.277 1787.92 382.702 C 1787.72 434.946 1788.49 487.204 1787.84 539.439 C 1787.63 556.278 1769.4 567.517 1754.04 561.813 C 1744.27 558.147 1740.85 548.687 1737.27 539.933 C 1736.43 539.924 1718.85 551.171 1715.45 552.816 C 1677.1 572.513 1621.3 564.411 1588.79 536.726 C 1508.11 468.037 1547.69 339.699 1655.42 329.366 z M 1673.47 517.716 C 1713.18 513.737 1742.02 478.124 1737.65 438.452 C 1733.28 398.78 1697.39 370.29 1657.76 375.043 C 1618.68 379.73 1590.66 415.026 1594.97 454.154 C 1599.28 493.283 1634.3 521.641 1673.47 517.716 z"/>
<path transform="translate(0,0)" fill="rgb(3,82,56)" d="M 1032.08 329.399 C 1052.86 327.542 1075.44 331.967 1094.04 341.461 C 1099.92 344.464 1107.52 350.072 1113.42 351.996 C 1115.71 350.225 1114.44 347.574 1115.41 345.045 C 1119.2 335.198 1130.58 328.828 1140.46 329.121 C 1146.65 329.32 1152.51 331.983 1156.73 336.519 C 1162.55 342.718 1164.33 348.82 1164.37 357.186 C 1164.62 418.276 1164.63 479.386 1164.43 540.475 C 1164.4 547.93 1158.24 553.888 1153.48 559.005 C 1150.36 562.354 1144.09 563.814 1139.68 563.614 C 1132.2 563.27 1125.17 559.931 1120.17 554.349 C 1114.98 548.599 1115.19 546.045 1115.5 538.917 C 1107.99 542.825 1102.8 547.732 1094.7 551.539 C 1054.89 572.074 998.92 566.144 965.476 536.899 C 886.114 467.504 925.383 339.237 1032.08 329.399 z M 1050.46 517.704 C 1089.88 513.669 1118.54 478.398 1114.42 438.986 C 1110.3 399.573 1074.97 370.989 1035.56 375.191 C 996.277 379.381 967.798 414.583 971.904 453.878 C 976.01 493.173 1011.15 521.727 1050.46 517.704 z"/>
<path transform="translate(0,0)" fill="rgb(3,82,56)" d="M 679.848 322.871 C 746.551 320.065 802.937 371.787 805.885 438.484 C 808.833 505.182 757.231 561.677 690.54 564.767 C 623.648 567.867 566.945 516.075 563.988 449.177 C 561.031 382.278 612.943 325.685 679.848 322.871 z M 694.37 516.547 C 734.462 511.428 762.893 474.891 758.005 434.771 C 753.116 394.65 716.743 366.01 676.595 370.668 C 636.12 375.365 607.196 412.099 612.124 452.546 C 617.052 492.994 653.952 521.707 694.37 516.547 z"/>
<path transform="translate(0,0)" fill="rgb(3,82,56)" d="M 259.8 208.247 C 277.31 206.939 288.443 209.429 303.149 219.479 C 332.694 239.672 326.759 272.919 326.748 304.792 L 326.71 397.76 L 326.725 476.356 C 326.739 498.197 330.148 522.7 316.03 541.155 C 305.476 554.951 290.527 561.15 273.699 563.659 C 259.726 565.06 249.328 562.226 237.317 555.888 C 228.013 550.978 212.617 533.271 211.089 523.909 C 208.373 507.267 209.322 482.694 209.322 465.187 L 209.457 358.28 L 209.391 293.131 C 209.373 272.154 206.135 252.965 218.242 235.415 C 229.881 218.544 240.154 212.707 259.8 208.247 z"/>
<path transform="translate(0,0)" fill="rgb(3,82,56)" d="M 1400.02 330.382 C 1449.55 325.623 1502.37 360.481 1513.79 410.073 C 1518.13 428.931 1528.49 467.671 1496.4 468.399 C 1455.78 469.321 1414.75 468.199 1374.09 468.471 C 1367.74 468.514 1349 467.573 1343.55 469.226 C 1343.33 469.765 1342.92 471.208 1343.07 471.72 C 1355.87 515.054 1407.11 531.37 1445.77 511.763 C 1459.69 504.702 1464.47 493.314 1481.01 492.594 C 1502.55 498.822 1513.27 515.918 1493.64 533.248 C 1422.9 595.68 1302.12 562.122 1291.46 462.038 C 1284.7 410.559 1314.63 357.438 1363.41 338.486 C 1376.45 333.42 1386.43 331.842 1400.02 330.382 z M 1343.04 423.773 C 1363.08 422.856 1384.57 423.175 1404.75 423.18 C 1412.09 423.205 1462.84 424.529 1465.74 421.692 C 1465.72 420.407 1465.66 415.035 1465.21 414.144 C 1453.05 390.208 1433.45 374.77 1405.64 375.139 C 1404.77 375.149 1403.9 375.192 1403.04 375.267 C 1373.36 379.729 1352.09 394.254 1343.04 423.773 z"/>
<path transform="translate(0,0)" fill="rgb(3,82,56)" d="M 1942.6 223.395 C 1960.47 221.532 1993.94 218.95 1993.56 246.058 C 1993.14 276.482 1960.6 264.349 1941.8 269.616 C 1912.3 277.881 1911.63 303.286 1910.9 328.838 C 1924.21 329.545 1974.16 324.471 1981.26 336.437 C 2010.07 384.988 1935.42 373.999 1911.63 374.219 C 1910.48 384.415 1911.22 414.994 1911.22 426.424 L 1911.29 531.742 C 1911.66 549.962 1905.38 563.371 1884.9 563.637 C 1877.61 563.765 1870.58 560.91 1865.44 555.733 C 1862.82 553.121 1859.56 549.255 1859.16 545.64 C 1857.12 527.611 1857.9 506.208 1857.93 488.069 L 1858.07 374.34 L 1846.94 374.545 C 1837.16 374.685 1827.06 375.557 1819.59 368.03 C 1810.78 359.185 1811.16 344.11 1820.02 335.451 C 1827.99 327.662 1838.98 328.818 1849.19 328.83 C 1852.11 328.833 1855.02 328.867 1857.94 328.896 C 1857.74 271.209 1881.56 230.379 1942.6 223.395 z"/>
<path transform="translate(0,0)" fill="rgb(3,82,56)" d="M 365.905 395.224 C 403.575 395.054 456.471 386.873 481.861 418.756 C 510.733 455.011 540.492 490.685 568.929 527.292 C 579.559 540.976 577.44 559.272 558.849 562.206 C 536.73 562.486 494.03 564.818 474.029 560.62 C 466.429 559.025 459.369 555.961 452.826 551.791 C 449.104 549.419 445.925 546.932 442.961 543.666 C 431.297 530.811 349.623 427.494 347.887 418.705 C 346.896 413.69 347.321 408.381 350.247 404.061 C 354.066 398.424 359.581 396.428 365.905 395.224 z"/>
<path transform="translate(0,0)" fill="rgb(31,157,41)" d="M 535.006 210.432 C 541.462 209.786 557.915 209.259 563.595 213.049 C 565.544 214.349 566.655 221.781 566.447 224.558 C 561.092 296.087 503.746 358.985 432.232 368.518 C 417.301 370.497 399.943 369.884 384.797 369.899 C 353.743 370.7 347.485 373.335 363.228 344.143 C 378.614 315.61 392.293 292.362 414.223 268.119 C 445.065 233.399 488.616 212.599 535.006 210.432 z"/>
<path transform="translate(0,0)" fill="rgb(3,82,56)" d="M 861.697 240.362 C 872.656 239.56 887.098 245.861 888.753 257.74 C 891.175 275.119 890.586 294.892 890.665 312.567 L 890.719 422.911 L 890.747 498.083 C 890.76 513.365 893.179 537.733 886.348 551.43 C 882.965 558.212 875.667 561.042 868.591 562.846 C 854.797 562.538 852.456 560.328 842.762 550.836 L 842.651 550.425 C 838.372 534.478 839.975 502.928 840.088 485.281 C 840.276 461.943 840.276 438.605 840.087 415.267 L 839.868 314.483 C 839.873 298.035 839.709 281.054 840.177 264.588 C 840.271 261.275 842.462 254.868 844.267 251.934 C 848.831 244.517 853.913 242.404 861.697 240.362 z"/>
<path transform="translate(0,0)" fill="rgb(3,82,56)" d="M 1226.91 241.427 C 1248.28 240.161 1254.41 251.936 1254.5 271.059 C 1254.59 288.832 1254.68 306.694 1254.78 324.466 L 1255.4 431.692 C 1255.58 455.81 1255.55 479.929 1255.32 504.047 C 1255.13 528.869 1261.79 562.066 1228.28 563.126 C 1200.13 557.581 1205.71 531.129 1205.56 508.062 L 1205.41 438.749 L 1205.55 326.409 C 1205.57 307.543 1205.07 288.804 1205.62 269.925 C 1206.08 253.854 1210.1 244.647 1226.91 241.427 z"/>
</svg>