<svg version="1.1" xmlns="http://www.w3.org/2000/svg" style="display: block;" viewBox="0 0 2048 1365" width="1536" height="1024" preserveAspectRatio="none">
<path transform="translate(0,0)" fill="rgb(254,254,254)" d="M 969.747 469.429 C 987.97 467.895 1010.12 473.423 1025.98 482.861 C 1030.63 485.629 1033.53 490.615 1039.32 491.49 C 1041.18 483.039 1043.32 476.57 1052.28 473.331 C 1057.38 471.462 1063.03 471.785 1067.88 474.224 C 1077.31 478.942 1078.93 486.909 1078.96 496.419 C 1079.14 546.745 1079.92 597.221 1078.46 647.517 C 1078.1 660.113 1070.3 663.282 1059.95 666.037 C 1054.17 664.921 1053.26 664.716 1048.1 661.913 C 1040.11 657.573 1041.56 649.744 1039.17 646.298 C 1035.29 646.734 1026.77 654.637 1018.59 658.087 C 1007.76 663.036 994.842 666.196 983.005 667.26 C 956.137 669.458 929.498 660.891 908.948 643.444 C 889.238 626.517 877.034 602.472 875.006 576.571 C 872.813 550.164 881.374 523.99 898.749 503.983 C 917.215 482.45 941.822 471.518 969.747 469.429 z M 987.661 628.311 C 1009.25 624.306 1027 608.978 1034.11 588.206 C 1041.22 567.434 1036.58 544.442 1021.98 528.05 C 1007.37 511.658 985.064 504.41 963.613 509.087 C 931.156 516.163 910.38 547.973 916.949 580.537 C 923.517 613.101 954.999 634.37 987.661 628.311 z"/>
<path transform="translate(0,0)" fill="rgb(254,254,254)" d="M 1510.57 469.371 C 1538.21 466.395 1559.3 475.749 1581.16 491.092 C 1590.15 461.113 1621.85 466.915 1621.57 498.47 C 1621.12 549.681 1623.38 601.547 1620.63 652.614 C 1620.36 657.762 1609.18 663.9 1605.25 666.026 C 1589.26 663.909 1586.94 661.836 1581.64 646.531 C 1574.08 649.081 1569.51 654.109 1561.91 658.16 C 1552.33 662.785 1544.45 664.792 1533.95 666.255 C 1506.32 670.225 1478.26 662.93 1456.07 646.01 C 1435.26 629.779 1421.82 605.894 1418.74 579.684 C 1411.91 522.966 1455.02 475.54 1510.57 469.371 z M 1523.54 629.02 C 1556.99 627.222 1582.68 598.681 1580.95 565.225 C 1579.22 531.768 1550.73 506.028 1517.27 507.689 C 1483.71 509.356 1457.88 537.945 1459.62 571.498 C 1461.35 605.051 1489.99 630.824 1523.54 629.02 z"/>
<path transform="translate(0,0)" fill="rgb(254,254,254)" d="M 662.559 468.182 C 718.192 464.344 766.348 506.455 769.961 562.103 C 773.575 617.751 731.269 665.737 675.607 669.126 C 620.262 672.495 572.609 630.483 569.016 575.152 C 565.423 519.82 607.243 471.998 662.559 468.182 z M 678.63 628.808 C 711.967 623.789 734.858 592.608 729.661 559.299 C 724.464 525.99 693.163 503.265 659.882 508.639 C 626.85 513.973 604.333 544.989 609.491 578.048 C 614.649 611.108 645.544 633.79 678.63 628.808 z"/>
<path transform="translate(0,0)" fill="rgb(254,254,254)" d="M 1286.39 469.407 C 1301.54 467.88 1318.4 471.274 1332.04 477.806 C 1355.29 488.94 1372.55 507.626 1381.21 532.044 C 1385.64 544.55 1390.75 562.99 1384.52 575.566 C 1382.96 578.727 1380.25 582.044 1376.9 583.417 C 1366.85 587.548 1283.21 584.876 1265.35 584.834 C 1256.69 584.813 1245.01 583.452 1236.82 586.176 C 1235.83 587.251 1234.9 587.645 1235.43 589.038 C 1249.23 625.025 1291.72 638.815 1325.25 621.184 C 1337.32 614.833 1342.23 606.159 1354.27 605.558 L 1355.55 605.501 C 1370.79 609.497 1380.78 623.863 1368.05 637.088 C 1350.99 654.829 1327.02 664.84 1302.61 666.999 C 1274.72 669.626 1246.94 660.984 1225.46 643 C 1205.55 625.831 1193.25 601.468 1191.27 575.25 C 1186.63 517.956 1230.57 473.826 1286.39 469.407 z M 1235.9 546.781 L 1300.5 546.809 L 1345.16 546.983 C 1333.29 518.807 1313.25 506.111 1282.25 509.268 C 1266.04 511.796 1251.51 520.703 1241.91 534.005 C 1238.51 538.79 1237.4 541.196 1235.9 546.781 z"/>
<path transform="translate(0,0)" fill="rgb(254,254,254)" d="M 319.005 393.344 C 336.253 391.663 357.395 406.658 361.204 423.67 C 363.984 438.1 363.342 453.074 363.397 467.811 C 363.536 521.14 363.635 574.61 362.627 627.913 C 362.167 652.25 344.36 662.246 323.131 666.575 C 300.363 666.734 280.539 654.17 278.925 630.77 C 277.979 617.046 277.958 604.917 277.978 591.167 L 278.007 528.107 L 278.001 468.308 C 277.941 433.424 273.552 398.557 319.005 393.344 z"/>
<path transform="translate(0,0)" fill="rgb(254,254,254)" d="M 1757.31 393.37 C 1773.45 391.256 1808.04 389.274 1806.14 412.905 C 1805.28 423.627 1794.23 428.933 1785.05 428.582 C 1751.04 427.285 1732.47 436.163 1730.36 472.558 C 1746.29 472.207 1765.67 470.633 1781.03 473.071 C 1802.4 475.972 1801.04 506.479 1783.25 509.276 C 1768.63 511.574 1745.29 509.698 1730.16 509.965 C 1729.11 548.45 1729.87 590.173 1729.86 628.902 C 1730.07 639.565 1731.69 649.666 1724.54 659.093 C 1714.84 671.879 1691.59 664.428 1690.41 649.144 C 1689.31 634.87 1689.84 618.63 1689.86 603.762 L 1689.92 510.141 C 1676.69 509.187 1655.84 514.421 1650.02 498.153 C 1647.53 491.198 1649.59 483.061 1654.72 477.855 C 1662.71 469.746 1679.08 472.107 1689.88 472.335 C 1689.83 430.443 1714.79 397.995 1757.31 393.37 z"/>
<path transform="translate(0,0)" fill="rgb(254,254,254)" d="M 400.782 532.28 C 415.107 531.105 457.185 530.046 468.373 536.152 C 474.266 539.368 479.844 544.337 484.439 549.186 C 493.184 558.414 556.689 635.722 558.614 643.268 C 559.841 648.078 559.342 653.358 556.524 657.518 C 552.532 663.41 547.267 664.813 540.723 665.918 C 522.227 666.025 486.593 669.466 470.802 660.974 C 465.162 657.942 459.571 652.546 455.236 647.888 C 444.538 636.392 384.896 563.016 382.32 552.683 C 381.298 548.582 382.02 543.45 384.541 540.001 C 388.545 534.521 394.511 533.198 400.782 532.28 z"/>
<path transform="translate(0,0)" fill="rgb(6,165,39)" d="M 526.556 393.4 C 534.445 392.888 554.963 389.869 554.515 401.932 C 553.585 427.012 540.309 456.479 522.986 474.286 C 491.839 506.304 460.334 513.182 417.328 514.242 C 409.677 514.28 389.722 516.74 386.991 508.773 C 388.534 495.358 411.068 460.771 420.36 449.616 C 449.448 414.697 481.828 397.952 526.556 393.4 z"/>
<path transform="translate(0,0)" fill="rgb(254,254,254)" d="M 817.062 396.997 C 832.623 396.408 842.346 401.128 842.801 418.176 C 843.226 434.056 843.113 449.852 843.135 465.732 L 843.222 553.876 L 843.173 615.032 C 843.147 625.489 843.737 645.16 841.63 654.436 C 836.951 660.041 835.154 662.281 828.387 664.897 C 813.736 667.627 803.407 659.532 803.168 644.402 C 802.7 614.837 802.914 585.238 802.906 555.662 L 802.903 465.962 C 802.905 451.17 801.801 418.948 805.303 406.224 C 809.679 401.46 811.446 400.063 817.062 396.997 z"/>
<path transform="translate(0,0)" fill="rgb(254,254,254)" d="M 1128.11 397.061 C 1129.62 396.936 1131.13 396.863 1132.64 396.844 C 1142.06 396.721 1152.9 403.231 1153.38 413.289 C 1154.64 439.476 1154.08 466.1 1154.03 492.364 C 1153.56 545.115 1153.54 597.869 1153.97 650.621 C 1149.15 658.258 1148.14 661.235 1140.1 664.9 C 1130.24 667.125 1115.38 662.176 1114.62 650.903 C 1113.24 630.196 1113.79 608.868 1113.77 588.074 L 1113.73 486.82 C 1113.74 464.291 1113.08 434.254 1114.7 411.284 C 1115.16 404.767 1122.59 400.078 1128.11 397.061 z"/>
<path transform="translate(0,0)" fill="rgb(246,208,154)" d="M 1043.08 780.208 C 1065.73 779.471 1093.21 778.332 1095.35 808.896 C 1095.95 817.948 1092.92 826.866 1086.91 833.666 C 1073.25 845.285 1059.86 843.527 1042.95 842.799 C 1042.22 824.769 1042.69 798.187 1043.08 780.208 z M 1076.41 830.347 C 1087.09 821.419 1088.78 806.372 1079.15 795.795 C 1073.29 789.361 1067.63 789.25 1059.52 787.982 C 1057.89 788.557 1054.25 789.432 1054.11 790.546 C 1052.87 800.574 1052.5 822.868 1053.63 831.983 C 1057.65 837.926 1071.25 833.284 1076.41 830.347 z"/>
<path transform="translate(0,0)" fill="rgb(246,208,154)" d="M 729.353 777.561 L 731.949 778.935 C 735.792 783.277 733.783 835.713 733.427 844.827 C 730.265 843.098 727.119 841.341 723.989 839.556 C 712.564 843.57 709.763 844.6 698.688 840.1 C 689.084 832.501 685.537 819.779 691.692 808.831 C 694.364 804.034 698.814 800.48 704.082 798.934 C 710.565 797.023 716.347 797.737 722.199 800.926 L 723.254 801.51 C 729.854 794.336 716.379 785.377 729.353 777.561 z M 718.211 834.444 C 729.922 822.563 726.09 805.311 708.306 806.632 C 707.369 806.705 706.435 806.81 705.505 806.947 C 692.528 819.504 699.261 839.744 718.211 834.444 z"/>
<path transform="translate(0,0)" fill="rgb(246,208,154)" d="M 1516.07 797.401 C 1519.59 798.573 1520.6 800.472 1523.78 801.952 C 1526.18 802.999 1530.49 798.813 1532.66 798.592 C 1559.69 795.834 1563.14 818.042 1554.66 836.29 C 1549.33 840.301 1546.3 842.081 1540.11 844.365 C 1531.4 843.674 1528.14 840.009 1524.3 839.818 C 1521.02 844.698 1527.41 854.608 1520.97 860.907 C 1517.59 861.934 1518.67 862.164 1516.12 860.941 C 1512.9 855.067 1513.07 802.971 1516.07 797.401 z M 1540.87 835.422 C 1554.62 827.256 1553.19 807.076 1533.75 806.245 C 1517.46 810.184 1518.08 835.114 1540.87 835.422 z"/>
<path transform="translate(0,0)" fill="rgb(254,254,254)" d="M 968.79 909.149 C 981.873 908.959 1001.28 907.39 1008.97 920.715 C 1011.61 925.294 1008.82 937.532 1003.03 939.278 C 1001.15 939.847 999.995 940.743 998.534 941.972 C 996.833 951.219 1010.18 956.805 1007.86 966.341 L 1005.55 967.239 C 1001.8 966.093 1003.17 966.958 1000.49 963.479 C 996.684 958.165 992.548 950.564 988.078 946.361 C 986.232 944.625 982.281 944.608 980.542 945.057 C 970.539 947.64 982.533 956.456 973.316 968.801 L 971.789 968.777 C 965.843 962.226 967.009 917.855 968.79 909.149 z M 977.382 936.907 C 985.316 937.054 988.333 937.025 996.065 935.594 C 1010.76 921.198 992.026 916.32 979.416 917.379 C 974.653 920.36 976.843 931.634 977.382 936.907 z"/>
<path transform="translate(0,0)" fill="rgb(246,208,154)" d="M 1472.7 798.245 C 1480.87 796.629 1489.28 799.566 1494.66 805.918 C 1500.04 812.27 1501.56 821.041 1498.63 828.835 C 1495.7 836.628 1488.77 842.22 1480.53 843.446 C 1473.72 844.461 1466.81 842.358 1461.71 837.718 C 1456.61 833.079 1453.87 826.394 1454.25 819.513 C 1454.81 809.038 1462.41 800.281 1472.7 798.245 z M 1466.57 831.523 C 1470.56 833.606 1475.51 836.848 1479.95 836.023 C 1497.59 826.55 1491.93 804.457 1473.08 806.097 C 1462.13 812.255 1462.58 821.044 1466.57 831.523 z"/>
<path transform="translate(0,0)" fill="rgb(246,208,154)" d="M 844.23 798.53 C 851.072 796.922 858.273 798.541 863.768 802.924 C 869.262 807.307 872.443 813.968 872.396 820.996 C 872.327 831.269 865.432 840.242 855.523 842.953 C 847.529 845.14 838.976 842.841 833.156 836.941 C 827.335 831.04 825.153 822.457 827.449 814.494 C 829.745 806.53 836.162 800.426 844.23 798.53 z M 852.571 836.068 C 869.225 825.579 865.37 805.007 845.358 806.225 C 830.664 812.9 832.26 834.072 852.571 836.068 z"/>
<path transform="translate(0,0)" fill="rgb(254,254,254)" d="M 660.095 952.45 C 660.172 957.147 661.003 962.284 658.902 965.914 C 655.948 966.481 654.989 966.867 652.089 966.388 C 649.296 960.993 651.708 920.889 651.116 912.377 C 651.016 910.934 653.506 910.006 654.891 909.322 C 667.463 910.599 668.858 935.345 679.52 941.523 C 687.726 940.392 692.008 916.306 703.279 909.014 C 707.982 908.937 708.148 913.319 708.252 917.405 C 708.679 934.224 709.62 951.115 708.746 967.901 L 699.958 965.446 C 699.727 955.455 698.75 947.824 702.344 938.595 C 703.53 935.55 703.065 932.292 701.298 929.459 L 699.755 929.303 C 695.431 931.924 685.938 949.039 682.942 954.059 C 675.691 956.461 670.696 943.829 668.187 938.929 C 662.153 941.398 661.982 941.198 660.864 947.96 L 660.095 952.45 z"/>
<path transform="translate(0,0)" fill="rgb(14,52,52)" d="M 660.095 952.45 C 660.832 937.737 659.094 945.107 655.188 934.81 C 657.032 931.732 657.628 931.546 660.641 929.391 L 662.585 929.844 L 668.187 938.929 C 662.153 941.398 661.982 941.198 660.864 947.96 L 660.095 952.45 z"/>
<path transform="translate(0,0)" fill="rgb(254,254,254)" d="M 1267.67 925.942 C 1275.26 925.629 1278.22 925.031 1284.47 929.42 L 1285.37 930.057 C 1287.96 927.864 1289.43 926.325 1292.8 926.801 C 1295.39 930.486 1294.01 960.046 1293.78 966.392 L 1292.04 967.12 C 1288.16 965.954 1287.6 966.444 1285.06 963.715 L 1283.82 964.572 C 1274.54 970.84 1263.26 969.56 1257.34 959.299 C 1253.86 953.232 1252.99 946.015 1254.91 939.292 C 1257.15 931.61 1261.22 929.442 1267.67 925.942 z M 1277.91 961.577 C 1289.92 953.54 1289.39 932.02 1272.35 933.136 C 1256.91 937.134 1256.97 959.757 1277.91 961.577 z"/>
<path transform="translate(0,0)" fill="rgb(246,208,154)" d="M 1394.94 779.386 L 1396.45 779.939 C 1400.81 784.984 1396.12 796.711 1398.7 804.537 C 1402.98 808.186 1424.64 808.109 1428.4 804.4 C 1429.06 799.553 1428.66 786.147 1428.61 780.632 L 1438.01 780.062 C 1438.28 797.638 1438.89 824.978 1437.84 841.941 C 1435.87 842.86 1432.71 841.912 1430.14 841.542 L 1428.99 840.838 C 1427.94 834.825 1428.47 821.99 1428.57 815.377 C 1382.75 808.729 1404.85 823.267 1397.17 841.528 C 1393.87 841.896 1393.37 842.082 1390.19 841.385 C 1386.58 836.578 1388.74 790.234 1389.19 781.988 C 1389.25 780.881 1393.69 779.803 1394.94 779.386 z"/>
<path transform="translate(0,0)" fill="rgb(254,254,254)" d="M 740.393 926.635 C 751.478 923.181 763.282 929.267 766.898 940.3 C 770.513 951.334 764.601 963.226 753.621 967.002 C 746.375 969.495 738.348 967.892 732.615 962.806 C 726.882 957.721 724.333 949.942 725.944 942.45 C 727.555 934.958 733.076 928.914 740.393 926.635 z M 750.855 961.015 C 764.214 950.466 761.694 933.063 745.932 932.998 C 744.989 932.996 744.046 933.024 743.104 933.08 C 727.524 941.628 731.841 961.828 750.855 961.015 z"/>
<path transform="translate(0,0)" fill="rgb(246,208,154)" d="M 536.517 779.153 C 545.007 778.502 562.203 778.583 561.607 790.973 C 556.355 796.161 551.534 790.242 547.174 786.485 C 526.573 788.296 524.468 801.159 544.961 805.653 C 562.64 809.53 567.829 816.428 563.399 834.449 C 557.895 838.763 553.283 841.91 546.591 843.956 C 538.035 843.69 519.649 839.878 520.355 828.65 L 522.316 827.552 C 533.719 828.249 550.108 845.741 556.123 825.681 C 554.122 812.837 528.706 815.39 523.156 802.751 C 517.519 789.912 526.545 783.63 536.517 779.153 z"/>
<path transform="translate(0,0)" fill="rgb(246,208,154)" d="M 948.011 798.061 C 949.173 797.984 950.337 797.933 951.501 797.907 C 961.574 797.713 974.988 807.572 974.837 817.684 C 974.665 829.181 949.575 819.491 941.791 826.127 C 942.137 834.177 948.732 834.601 955.217 836.182 C 958.514 835.039 961.489 833.506 964.633 831.995 L 968.271 831.359 L 971.209 833.855 L 970.617 835.994 C 964.856 842.155 962.973 842.049 954.64 844.448 C 933.116 840.488 926.03 827.145 934.608 806.828 C 939.333 802.285 942.149 800.775 948.011 798.061 z M 956.224 816.793 C 960.469 816.131 961.315 816.78 963.771 814.126 C 963.206 806.819 953.403 805.837 947.664 806.259 C 944.908 808.717 944.262 809.081 942.448 812.198 C 943.121 818.433 951.448 817.078 956.224 816.793 z"/>
<path transform="translate(0,0)" fill="rgb(246,208,154)" d="M 1281.33 798.064 C 1282.43 797.936 1283.53 797.845 1284.63 797.788 C 1297.64 797.069 1308.21 807.39 1308.23 820.08 C 1303.03 828.493 1283.18 819.886 1275.28 824.227 C 1274.11 826.993 1274.31 825.835 1275.32 829.257 C 1282.65 835.018 1285.62 838.91 1295.36 833.711 C 1299.02 831.493 1300.43 830.5 1304.39 832.462 L 1304.97 834.232 C 1302.56 841.38 1293.11 842.867 1286.73 844.128 C 1284.94 843.628 1283.16 843.094 1281.39 842.527 C 1274.87 840.413 1269.86 836.55 1266.82 830.325 C 1264.07 824.735 1263.73 818.267 1265.87 812.418 C 1268.9 804.258 1273.91 801.336 1281.33 798.064 z M 1270.9 816.246 C 1277.35 816.407 1283.8 816.387 1290.25 816.185 C 1294.14 815.89 1294.9 816.544 1297.25 814.304 C 1295.69 807.507 1289.12 806.221 1283.1 805.995 C 1279.65 808.828 1273.92 813.257 1270.9 816.246 z"/>
<path transform="translate(0,0)" fill="rgb(246,208,154)" d="M 595.166 798.132 C 605.435 797.322 615.556 800.572 619.578 811.884 C 620.623 814.822 620.969 818.746 619.371 821.527 C 611.463 827.591 594.685 818.382 588.579 825.785 C 588.614 829.136 588.905 829.335 590.671 832.337 C 593.917 834.789 598.408 835.291 602.462 836.11 C 606.122 834.541 609.06 832.91 612.546 831.011 C 615.702 831.818 616.174 831.721 618.131 834.094 L 617.663 836.338 C 608.142 846.996 585.87 845.631 580.262 831.629 C 573.402 814.501 579.562 805.202 595.166 798.132 z M 586.841 815.327 C 594.971 816.62 598.782 817.214 606.949 816.084 L 610.389 815.497 L 611.24 813.896 C 608.537 806.601 599.948 805.895 593.386 805.807 L 586.841 815.327 z"/>
<path transform="translate(0,0)" fill="rgb(246,208,154)" d="M 1124.75 798.247 C 1137.83 797.459 1150.8 805.044 1150.11 819.257 C 1143.95 830.207 1120.63 817.223 1116.97 826.005 C 1120.27 837.561 1131.46 836.895 1140.18 832.121 L 1141.97 831.165 C 1145.66 832.142 1144.78 831.349 1146.94 833.854 L 1146.59 836.235 C 1142.11 841.55 1137.33 842.184 1130.65 844.142 C 1114.32 841.366 1102.18 830.251 1108.33 811.961 C 1110.83 804.548 1117.95 801.224 1124.75 798.247 z M 1131.25 817.032 C 1134.7 816.55 1138.06 816.095 1141.49 815.473 C 1137.89 810.214 1136.17 806.163 1129.5 805.105 C 1124.06 805.604 1118.57 807.19 1118.85 813.671 C 1122.61 818.501 1125.37 817.281 1131.25 817.032 z"/>
<path transform="translate(0,0)" fill="rgb(246,208,154)" d="M 1588.4 798.029 C 1599.21 797.701 1602.44 799.642 1610.29 806.774 C 1612.36 812.745 1614.76 816.55 1612.35 821.81 C 1605.16 827.447 1590.47 822.315 1581.21 822.177 L 1580.19 823.524 C 1579.56 828.284 1579.26 826.478 1580.93 830.614 C 1587.48 837.163 1596.69 836.767 1604.06 831.904 C 1606.22 830.873 1606.42 831.092 1608.76 831.332 C 1609.99 832.634 1609.84 833.116 1610.22 834.935 C 1601.87 852.652 1582.34 842.317 1572.56 831.808 C 1569.89 820.879 1569.68 819.453 1572.72 808.702 C 1577.82 803.251 1581.7 801.059 1588.4 798.029 z M 1593.74 816.059 C 1598.41 815.776 1599.23 816.575 1602.16 814.021 C 1602.41 806.709 1594.2 806.173 1588.83 806.043 C 1584.84 809.352 1581.7 812.4 1577.94 815.66 C 1582.98 815.812 1588.76 816.127 1593.74 816.059 z"/>
<path transform="translate(0,0)" fill="rgb(254,254,254)" d="M 1121.21 925.018 C 1142.5 925.513 1136.22 949.679 1137.33 963.863 C 1135.48 966.054 1135.37 966.505 1132.74 967.083 C 1126.05 960.531 1135.35 939.92 1124.2 933.578 C 1120.18 933.517 1119.46 933.445 1115.71 934.8 C 1109.7 941.369 1115.7 964.344 1108.18 966.742 L 1105.76 965.01 C 1104.32 962.201 1105.17 952.067 1105.22 947.874 C 1104.36 942.342 1104.44 938.18 1100.22 934.622 C 1080.53 926.74 1088.23 959.207 1084.87 967.382 L 1083.13 968.088 C 1076.23 964.248 1076.5 935.863 1078.83 929.487 C 1085.98 927.276 1089.56 928.55 1100.31 925.067 C 1102.72 927.197 1106.93 930.212 1109.6 932.226 C 1114.41 928.41 1115.63 927.391 1121.21 925.018 z"/>
<path transform="translate(0,0)" fill="rgb(254,254,254)" d="M 850.574 926.032 C 862.982 925.356 864.78 926.823 873.318 935.898 C 873.695 937.471 874.048 939.05 874.377 940.634 C 875.223 944.849 874.855 945.108 872.863 948.065 C 866.768 951.887 852.184 949.976 843.195 950.096 C 843.532 950.742 843.876 951.385 844.225 952.024 C 849.444 961.489 855.979 963.975 865.504 958.062 C 866.98 956.745 866.725 957.1 868.673 956.308 C 871.476 957.819 870.507 956.701 871.495 959.92 C 869.247 968.449 856.126 970.197 849.612 967.309 C 828.243 957.835 831.151 934.911 850.574 926.032 z M 844.182 942.253 L 857.774 943.867 C 861.826 943.071 862.888 943.583 865.426 941.011 C 865.924 934.382 857.417 933.159 852.333 933.177 C 847.361 935.437 847.112 936.842 844.182 942.253 z"/>
<path transform="translate(0,0)" fill="rgb(254,254,254)" d="M 1427.74 925.977 C 1440.88 925.792 1454.72 932.301 1451.16 947.814 C 1446.33 952.513 1430.87 948.255 1422.43 950.361 C 1421.28 952.573 1421.57 951.706 1422.42 954.823 C 1426.92 960.129 1434.84 963.316 1440.96 958.933 C 1443.66 956.631 1444.27 955.728 1447.55 957.405 C 1449.08 961.584 1446.36 965.196 1442.4 966.775 C 1424.22 974.029 1406.8 958.067 1413.68 939.288 C 1416.68 931.095 1420.34 929.485 1427.74 925.977 z M 1435.8 943.524 C 1439.35 942.983 1440.49 943.471 1442.59 941.284 C 1441.83 935.293 1436.32 933.585 1431.05 933.027 C 1427.26 934.675 1426.13 935.016 1423.06 938.013 L 1422.67 940.187 C 1426.32 943.886 1430.22 943.202 1435.8 943.524 z"/>
<path transform="translate(0,0)" fill="rgb(254,254,254)" d="M 1037.73 926.121 C 1047.24 925.375 1056.27 927.185 1060.43 936.943 C 1062.02 940.689 1063.08 943.336 1061.54 947.352 C 1054.4 955.108 1037.33 945.23 1032.11 952.552 C 1033.03 965.034 1047.74 960.934 1055.03 957.154 L 1056.59 956.341 L 1058.93 957.291 C 1064.63 968.368 1035.76 975.172 1026.24 958.174 C 1023.28 952.884 1022.54 946.636 1024.18 940.801 C 1026.45 932.87 1031.11 929.867 1037.73 926.121 z M 1048.25 942.963 C 1052.36 942.815 1051.88 943.532 1053.96 941.373 C 1052.77 934.857 1046.53 933.259 1040.76 933.162 C 1037.54 935.195 1036.11 935.884 1033.75 938.999 L 1033.82 941.176 C 1038.38 944.211 1042.65 943.249 1048.25 942.963 z"/>
<path transform="translate(0,0)" fill="rgb(246,208,154)" d="M 655.592 798.038 C 657.182 797.815 658.796 797.807 660.388 798.015 C 667.257 798.958 670.982 804.209 674.685 809.303 C 676.318 818.902 675.88 831.243 675.854 841.213 C 672.495 841.67 669.286 842.496 665.985 843.266 C 665.658 830.499 671.248 808.41 654.934 805.93 C 649.19 806.778 648.794 808.81 645.626 813.35 C 645.035 823.23 644.502 833.113 644.026 843 L 634.776 841.592 C 634.738 830.392 634.047 812.04 635.789 800.74 C 636.195 798.106 645.398 801.094 648.258 800.438 C 650.972 799.816 652.778 799.182 655.592 798.038 z"/>
<path transform="translate(0,0)" fill="rgb(246,208,154)" d="M 779.866 780.426 C 783.578 780.091 784.166 779.884 787.698 780.75 C 789.53 791.285 787.44 819.786 788.774 833.87 C 796.795 834.69 811.898 832.068 817.025 837.271 C 817.288 840.818 817.561 839.398 815.794 842.52 C 808.672 843.919 786.573 843.284 778.99 842.644 C 778.509 835.662 777.837 785.006 779.866 780.426 z"/>
<path transform="translate(0,0)" fill="rgb(254,254,254)" d="M 1332.38 925.251 C 1352.25 928.537 1348.99 948.955 1348.66 964.134 L 1340.13 969.457 C 1339.65 960.188 1343.02 941.443 1335.74 934.915 C 1332.78 932.258 1327.73 933.744 1324.07 934.546 C 1315.88 945.537 1325.69 960.283 1317.21 967.307 C 1313.95 967.408 1315.24 967.804 1312.49 965.568 C 1309.93 961.082 1313.04 941.818 1310.69 934.943 C 1310.4 934.104 1310.9 930.742 1312.12 930.264 C 1319.03 927.547 1324.66 927.705 1332.38 925.251 z"/>
<path transform="translate(0,0)" fill="rgb(254,254,254)" d="M 785.36 925.434 C 786.866 925.737 788.397 925.949 789.513 926.965 C 795.753 932.647 799.112 924.666 807.339 925.288 C 813.819 927.859 816.385 932.421 819.889 938.124 C 820.316 946.476 820.053 957.124 820.08 965.646 L 811.645 966.657 L 811.121 940.749 C 810.644 935.696 805.06 931.481 800.592 933.007 C 787.489 937.481 794.402 958.275 788.526 967.879 L 786.893 968.111 C 785.794 967.154 783.275 965.02 783.35 963.714 C 783.902 954.048 780.486 932.906 785.36 925.434 z"/>
<path transform="translate(0,0)" fill="rgb(254,254,254)" d="M 887.108 925.69 C 888.804 925.861 890.266 926.15 891.937 926.445 C 896.765 930.645 902.996 947.912 905.563 954.365 C 911.204 949.452 910.347 954.801 912.001 945.529 C 913.073 939.519 915.116 931.238 919.433 926.682 C 922.912 925.515 921.445 925.457 924.925 926.991 C 926.835 932.534 917.91 948.572 914.925 954.49 C 912.207 961.658 906.433 978.18 900.91 983.424 C 899.305 984.948 898.438 984.283 896.522 983.892 L 895.443 981.952 C 895.567 977.373 899.563 970.349 901.695 965.942 C 897.715 955.796 889.024 939.897 886.147 928.98 C 886.526 927.684 886.846 926.588 887.108 925.69 z"/>
<path transform="translate(0,0)" fill="rgb(246,208,154)" d="M 1249.5 797.617 C 1253.71 798.161 1255.04 798.132 1256.68 802.156 C 1255.03 808.547 1241.7 838.578 1237.14 843.187 L 1234.14 842.697 C 1227.29 838.232 1222.78 823.576 1219.48 815.5 C 1217.5 810.921 1211.34 799.669 1219.23 798.131 C 1228.4 802.181 1229.4 826.688 1236.83 827.127 C 1241.89 820.722 1242.43 806.243 1249.5 797.617 z"/>
<path transform="translate(0,0)" fill="rgb(246,208,154)" d="M 882.33 797.418 C 898.411 802.008 891.419 824.427 902.09 827.916 C 906.526 822.095 909.44 804.774 915.707 799.027 C 919.078 798.208 920.49 798.031 922.269 801.201 C 922.441 805.37 920.4 808.815 918.659 812.751 C 916.071 821.214 908.589 841.355 899.622 843.115 C 894.164 839.718 884.469 811.789 881.269 804.913 C 879.765 801.684 881.032 800.115 882.33 797.418 z"/>
<path transform="translate(0,0)" fill="rgb(254,254,254)" d="M 1379.48 925.936 C 1385.28 925.548 1394.65 926.307 1398.73 930.637 L 1397.51 935.933 C 1391.03 939.531 1387.01 932.296 1380.62 933.236 C 1374.6 936.32 1372.28 943.534 1369.59 949.648 C 1379.31 960.09 1378.05 964.984 1393.73 957.564 C 1394.03 957.296 1395.69 956.476 1396.12 956.252 C 1399.04 957.915 1398.12 956.724 1399.04 959.892 C 1394.38 973.674 1371.21 969.708 1365.29 956.115 C 1362.94 950.703 1362.83 944.579 1365 939.09 C 1367.89 931.738 1372.65 928.905 1379.48 925.936 z"/>
<path transform="translate(0,0)" fill="rgb(254,254,254)" d="M 1223.64 914.3 C 1225.39 914.494 1227.14 914.704 1228.89 914.93 C 1231.63 919.096 1229.39 921.554 1231.61 925.771 C 1231.47 925.502 1240.34 929.185 1240.79 929.375 L 1241.37 930.98 C 1238.67 933.317 1234.37 933.643 1230.65 934.369 C 1230.97 942.794 1231.09 951.412 1231.31 959.857 C 1235.22 960.873 1239.51 961.598 1242.73 963.853 C 1241.32 965.173 1239.6 966.784 1237.79 967.495 C 1217.85 975.321 1224.2 942.883 1221.25 935.001 C 1219.5 934.175 1217.92 933.651 1216.48 932.086 C 1214.4 929.818 1221.28 925.915 1221.41 925.271 C 1222.03 922.231 1223.04 917.224 1223.64 914.3 z"/>
<path transform="translate(0,0)" fill="rgb(246,208,154)" d="M 1165.26 779.633 C 1168.3 779.422 1170.98 779.473 1174.01 779.5 L 1174.04 842.529 C 1170.59 842.259 1167.76 842.378 1164.79 840.72 C 1163.79 834.082 1163.49 783.675 1165.26 779.633 z"/>
<path transform="translate(0,0)" fill="rgb(254,254,254)" d="M 1186.25 914.388 C 1190.14 914.584 1191.48 914.462 1193.61 917.838 C 1192.01 931.844 1199.27 924.042 1204.69 927.991 L 1205.13 930.992 C 1202.07 934.692 1199.72 931.987 1193.88 935.451 C 1192.41 937.901 1193.9 954.813 1194.06 959.35 C 1199.68 960.606 1201.58 961.115 1206.86 963.325 C 1202.83 966.595 1197.74 969.428 1192.43 968.251 C 1181.96 962.17 1188.34 941.927 1184.91 935.062 C 1182.52 933.909 1180.44 933.269 1179.12 931.031 C 1180.98 923.262 1186.08 929.723 1186.25 914.388 z"/>
<path transform="translate(0,0)" fill="rgb(246,208,154)" d="M 1323.64 797.328 C 1326.68 798.696 1328.98 799.828 1331.9 801.427 C 1332.14 801.326 1332.38 801.225 1332.63 801.124 L 1333.85 800.642 C 1338.58 798.734 1346.26 796.855 1349.97 801.745 C 1344.33 812.95 1333.55 798.156 1331.23 822.509 C 1331.49 827.395 1333.54 843.301 1327.1 844.527 C 1324.31 843.231 1324.22 843.194 1322.57 840.529 C 1321.39 834.192 1320.78 802.899 1323.64 797.328 z"/>
<path transform="translate(0,0)" fill="rgb(246,208,154)" d="M 1196 797.626 L 1198.37 799.238 C 1202.32 805.268 1201.36 833.24 1200.12 841.165 C 1200.12 841.165 1197.72 844.041 1197.43 844.391 L 1193.6 841.888 C 1190.22 836.008 1191.45 813.696 1191.69 806.093 C 1191.83 801.574 1193.08 800.631 1196 797.626 z"/>
<path transform="translate(0,0)" fill="rgb(254,254,254)" d="M 1157.31 925.806 C 1160.74 925.975 1162.79 925.74 1164.89 928.475 C 1165.55 934.867 1165.9 961.43 1164.41 967.008 C 1161.51 966.919 1159.99 966.794 1157.13 966.328 C 1155.24 963.144 1155.71 930.259 1157.31 925.806 z"/>
<path transform="translate(0,0)" fill="rgb(246,208,154)" d="M 1658.13 813.39 C 1664.43 813.234 1682.02 811.492 1684.67 817.629 C 1682.37 821.081 1682.8 820.163 1678.73 822.234 C 1670.91 821.414 1658.08 824.315 1652.64 818.899 L 1652.65 816.088 C 1654.67 813.417 1653.91 814.27 1658.13 813.39 z"/>
<path transform="translate(0,0)" fill="rgb(246,208,154)" d="M 472.107 813.476 C 476.553 813.567 478.685 814.047 481.354 817.751 L 480.925 819.581 C 475.432 822.93 464.396 821.9 457.751 821.717 C 455.561 821.752 453.761 821.173 451.632 820.659 C 449.044 818.107 449.156 818.988 448.569 816.011 C 451.955 812.553 466.86 813.462 472.107 813.476 z"/>
<path transform="translate(0,0)" fill="rgb(246,208,154)" d="M 428.842 813.476 C 430.915 813.161 432.208 813.366 434.266 813.535 C 436.969 815.464 436.497 814.538 437.374 817.224 L 436.27 819.261 C 429.399 823.398 423.971 822.092 415.995 821.61 C 412.076 821.343 408.16 820.988 405.295 818.202 L 407.908 819.747 L 406.295 817.126 C 411.281 813.117 422.599 813.425 428.842 813.476 z"/>
<path transform="translate(0,0)" fill="rgb(246,208,154)" d="M 1700.06 813.287 C 1707.17 813.746 1721.21 811.754 1726.04 816.782 C 1725.39 820.156 1725.93 818.935 1722.56 821.535 C 1715.99 822.111 1700.17 823.738 1696.07 818.672 C 1696.92 815.322 1697.03 816.103 1700.06 813.287 z"/>
<path transform="translate(0,0)" fill="rgb(246,208,154)" d="M 989.394 831.938 C 993.621 831.838 993.563 831.168 996.825 833.178 C 1000.66 839.816 997.193 850.093 990.816 853.911 L 988.594 853.798 L 987.443 852.349 C 989.891 842.43 985.689 839.499 989.394 831.938 z"/>
<path transform="translate(0,0)" fill="rgb(246,208,154)" d="M 1195.13 779.457 C 1198.06 778.619 1201.13 780.25 1202.07 783.149 C 1203.02 786.047 1201.5 789.175 1198.64 790.226 C 1196.69 790.942 1194.51 790.537 1192.95 789.169 C 1191.39 787.802 1190.7 785.691 1191.16 783.666 C 1191.61 781.642 1193.13 780.027 1195.13 779.457 z"/>
<path transform="translate(0,0)" fill="rgb(254,254,254)" d="M 1161.18 907.462 C 1164.85 909.538 1166.02 910.309 1166.16 914.508 C 1163.85 918.197 1164.26 917.206 1159.82 919.358 C 1155.83 917.587 1155.2 916.718 1155.14 912.567 C 1156.87 909.261 1157.73 909.064 1161.18 907.462 z"/>
</svg>